<?xml version="1.0" standalone="no"?>
<!DOCTYPE svg PUBLIC "-//W3C//DTD SVG 20010904//EN"
 "http://www.w3.org/TR/2001/REC-SVG-20010904/DTD/svg10.dtd">
<svg version="1.0" xmlns="http://www.w3.org/2000/svg"
 width="1079.000000pt" height="964.000000pt" viewBox="0 0 1079.000000 964.000000"
 preserveAspectRatio="xMidYMid meet">

<g transform="translate(0.000000,964.000000) scale(0.100000,-0.100000)"
fill="#000000" stroke="none">
<path d="M4781 9119 c-115 -23 -139 -45 -80 -69 23 -10 30 -18 27 -34 -6 -28
-190 -285 -204 -286 -15 0 -21 23 -39 147 -14 100 -14 104 6 138 l21 35 -29 0
c-60 0 -208 -31 -220 -46 -16 -22 -8 -38 26 -51 27 -10 30 -18 69 -179 23 -93
53 -229 67 -303 23 -122 24 -136 10 -157 -8 -13 -15 -31 -15 -40 0 -14 7 -15
38 -10 20 3 76 9 125 13 83 6 87 7 87 29 0 16 -7 25 -24 30 -32 8 -63 80 -76
173 l-10 74 41 53 c23 30 46 54 52 54 16 0 298 -283 288 -289 -4 -4 -13 -16
-20 -28 -15 -29 -11 -29 137 -6 94 15 113 21 118 38 5 13 0 24 -17 35 -45 29
-179 142 -179 150 0 5 -52 55 -115 111 -63 56 -116 108 -119 115 -7 17 118
203 162 241 20 18 43 37 50 43 6 6 12 17 12 25 0 20 -69 18 -189 -6z"/>
<path d="M5446 9094 c-3 -26 -6 -55 -6 -65 0 -27 32 -24 60 6 16 17 34 25 55
25 32 0 135 -17 142 -24 7 -6 -39 -473 -53 -539 -8 -37 -14 -70 -14 -73 0 -2
-6 -4 -13 -4 -12 0 -43 -49 -35 -55 2 -1 60 -5 130 -9 141 -7 149 -3 117 50
-19 31 -18 37 6 325 14 161 25 295 25 296 0 19 180 -24 203 -48 10 -10 25 -19
34 -19 14 0 15 10 9 77 -4 43 -8 79 -9 80 -5 5 -419 23 -527 23 l-117 0 -7
-46z"/>
<path d="M6453 8981 c-10 -16 -9 -21 8 -33 20 -13 17 -21 -87 -325 -61 -181
-112 -313 -119 -313 -6 0 -17 -11 -23 -25 -10 -21 -9 -25 4 -25 8 0 60 -14
116 -30 60 -18 105 -27 111 -21 5 5 2 21 -7 38 -14 28 -13 37 16 144 17 63 35
118 39 123 5 6 29 3 62 -7 l53 -17 44 -180 c25 -100 47 -184 50 -188 9 -12
171 -63 181 -57 14 9 11 35 -6 41 -26 10 -119 302 -109 341 6 21 40 33 96 33
43 0 96 47 124 108 29 64 30 77 3 144 -26 67 -39 81 -114 125 -51 31 -381 143
-419 143 -6 0 -17 -9 -23 -19z m365 -199 l57 -41 -2 -52 c-2 -38 -9 -61 -28
-85 -24 -32 -30 -34 -83 -33 -108 1 -226 38 -218 68 3 9 14 50 26 91 12 41 23
81 26 89 3 11 21 13 85 8 74 -5 85 -9 137 -45z"/>
<path d="M3765 8858 c-129 -55 -289 -121 -364 -149 -41 -16 -84 -38 -95 -49
l-20 -20 21 0 c48 0 79 -45 156 -228 95 -225 152 -404 137 -431 -16 -31 5 -35
63 -12 201 79 440 172 485 187 53 19 53 19 47 54 -16 87 -25 110 -51 116 -30
8 -25 11 -56 -50 l-24 -48 -140 -54 c-76 -30 -148 -52 -159 -49 -14 3 -34 38
-71 122 -28 65 -49 123 -47 129 2 7 47 31 98 54 97 44 106 45 199 24 28 -7 28
-6 21 27 -10 48 -67 153 -85 157 -9 1 -26 -16 -41 -40 -24 -39 -36 -47 -123
-81 -53 -21 -104 -37 -112 -35 -10 2 -28 33 -45 78 -32 81 -36 110 -16 110 6
0 65 23 130 51 121 52 124 53 213 34 24 -5 33 -3 38 10 8 22 -53 125 -74 124
-8 0 -46 -14 -85 -31z"/>
<path d="M7492 8607 c-7 -8 -6 -17 3 -30 12 -17 7 -22 -61 -57 -124 -64 -226
-160 -279 -261 -28 -52 -45 -154 -33 -195 16 -58 43 -105 85 -146 85 -83 101
-96 163 -133 36 -21 92 -56 126 -77 33 -21 66 -38 72 -38 14 0 35 37 28 49
-10 15 32 106 86 185 72 107 104 156 123 189 9 16 43 65 76 110 43 59 67 83
87 87 53 10 37 35 -64 95 -90 53 -98 56 -110 40 -10 -13 -10 -22 -2 -35 13
-21 10 -26 -177 -323 -123 -196 -132 -206 -161 -207 -79 0 -184 137 -184 240
0 67 61 170 149 253 88 82 153 117 220 117 44 0 61 10 61 35 0 5 -180 115
-189 115 -5 0 -13 -6 -19 -13z"/>
<path d="M2804 8302 c-28 -16 -83 -55 -123 -88 -40 -32 -97 -75 -125 -96 -29
-20 -57 -48 -64 -62 -11 -24 -9 -26 16 -32 15 -3 30 -6 33 -7 4 -1 97 -114
208 -252 173 -214 201 -254 201 -283 0 -42 3 -41 121 39 86 59 89 62 73 80 -9
11 -26 19 -37 19 -34 0 -94 56 -101 96 -8 39 -2 51 65 139 89 118 126 249 95
342 -13 40 -27 57 -73 91 l-57 42 -91 0 c-80 0 -96 -4 -141 -28z m189 -135
c48 -45 57 -58 57 -88 0 -81 -86 -258 -125 -259 -19 0 -69 57 -188 213 l-38
50 62 63 c53 53 69 64 103 67 23 2 48 4 56 5 8 1 41 -22 73 -51z"/>
<path d="M8403 7961 c-16 -36 -48 -62 -268 -218 -224 -159 -255 -178 -299
-183 -27 -3 -51 -10 -53 -16 -2 -6 30 -41 71 -78 l75 -67 11 40 c7 28 19 45
38 55 24 12 274 199 374 279 21 17 41 28 44 24 3 -3 -44 -99 -105 -214 l-110
-208 27 -22 c15 -12 34 -25 43 -28 10 -3 100 35 212 89 264 129 273 130 171
25 -45 -46 -103 -113 -130 -149 -26 -36 -75 -98 -108 -137 -52 -62 -65 -73
-92 -73 -17 0 -37 -7 -45 -16 -11 -13 -1 -26 72 -94 75 -71 85 -78 97 -63 6 9
12 24 12 33 0 26 80 132 213 284 68 78 140 164 161 191 28 38 46 52 78 60 l40
11 -91 83 c-75 69 -94 81 -113 75 -13 -3 -94 -42 -182 -86 -87 -44 -160 -77
-163 -74 -2 2 43 84 101 182 120 204 120 173 4 276 l-68 60 -17 -41z"/>
<path d="M5109 7252 c-207 -356 -518 -891 -690 -1189 l-314 -541 -60 -22 c-33
-11 -91 -29 -130 -39 -38 -10 -149 -44 -245 -75 -96 -32 -206 -63 -245 -71
-38 -7 -101 -25 -140 -40 -38 -15 -90 -30 -115 -34 -44 -7 -134 -35 -235 -71
-27 -10 -74 -24 -103 -30 -30 -7 -84 -24 -120 -37 -67 -25 -89 -31 -191 -52
-30 -6 -56 -13 -58 -15 -11 -11 -6 -105 6 -125 10 -16 39 -10 201 38 58 17
130 38 160 46 30 9 69 20 85 26 17 6 48 16 70 21 22 6 60 19 85 31 25 11 108
37 185 57 160 43 372 105 526 155 59 19 130 37 159 41 48 6 53 5 47 -11 -7
-16 -748 -1243 -817 -1350 -18 -27 -83 -138 -145 -245 -127 -219 -190 -322
-252 -413 -61 -90 -76 -118 -66 -128 5 -5 1185 -11 2693 -13 1477 -2 2702 -7
2723 -11 25 -5 37 -3 37 4 0 17 -150 293 -175 321 -25 29 -98 162 -345 630
-178 337 -480 882 -505 910 -23 27 -88 160 -81 167 3 4 86 -28 184 -70 172
-73 1112 -455 1142 -464 10 -3 24 13 42 50 l27 55 -47 20 c-26 11 -200 84
-387 162 -187 78 -396 168 -465 200 -146 68 -628 280 -638 280 -9 0 -112 184
-112 199 0 18 84 13 802 -49 380 -33 693 -58 696 -56 6 7 33 138 29 142 -2 2
-161 15 -353 28 -493 35 -575 42 -879 70 -148 14 -297 26 -330 26 -67 0 -61
-7 -135 135 -18 33 -42 71 -54 85 -13 14 -98 165 -191 335 -285 527 -297 549
-320 575 -12 14 -49 75 -82 135 -33 61 -124 223 -203 360 -79 138 -171 304
-205 370 -33 66 -67 121 -75 122 -10 2 -141 -213 -391 -645z m393 376 c9 -7
62 -96 119 -198 56 -102 125 -225 154 -275 29 -49 78 -137 111 -195 32 -58 68
-118 80 -135 12 -16 36 -59 54 -94 17 -35 132 -241 255 -457 211 -369 275
-486 275 -499 0 -3 -21 -5 -47 -5 -27 0 -534 -50 -1128 -110 -594 -61 -1083
-110 -1087 -110 -21 0 171 347 544 985 225 385 422 718 437 740 15 22 66 113
112 202 46 90 89 163 95 163 5 0 17 -6 26 -12z m1174 -2062 c34 -45 71 -101
83 -124 l21 -40 -31 -7 c-34 -8 -215 -2 -604 20 -143 8 -339 19 -435 25 -96 5
-319 13 -495 17 -176 4 -311 9 -300 11 49 12 1577 180 1635 180 l65 1 61 -83z
m-2021 -201 c187 -8 410 -20 495 -25 365 -23 753 -44 855 -47 61 -2 271 -10
469 -18 331 -14 361 -17 387 -36 16 -11 29 -30 29 -42 0 -11 8 -30 18 -41 11
-12 83 -133 162 -271 79 -137 162 -281 185 -320 23 -38 126 -234 230 -435 103
-201 195 -373 204 -383 19 -23 81 -135 170 -308 l70 -137 -987 -7 c-1537 -12
-3992 5 -3992 28 0 6 38 71 84 146 46 75 314 530 596 1011 282 481 520 882
530 890 19 18 -10 18 495 -5z"/>
<path d="M2123 7714 c-57 -21 -192 -152 -229 -224 -23 -45 -28 -68 -29 -127 0
-84 14 -110 91 -160 41 -28 58 -33 106 -33 52 0 65 5 150 58 212 133 271 155
325 117 33 -23 41 -130 13 -184 -11 -23 -25 -41 -31 -41 -6 0 -36 -18 -68 -40
-43 -30 -66 -40 -96 -40 -49 0 -60 7 -69 43 -6 26 -30 46 -42 34 -10 -9 -53
-191 -48 -197 10 -9 178 -1 224 12 61 16 210 159 251 240 48 95 34 214 -34
286 -40 43 -114 74 -166 69 -75 -7 -179 -56 -295 -139 -34 -24 -48 -28 -112
-28 -40 0 -76 5 -79 10 -15 25 8 104 42 141 73 81 156 107 216 70 63 -39 63
-38 41 112 l-6 37 -56 -1 c-32 0 -76 -7 -99 -15z"/>
<path d="M1446 6552 c-3 -5 -23 -59 -45 -120 -36 -103 -38 -112 -21 -112 11 0
30 5 43 11 19 9 42 6 113 -14 84 -24 192 -61 201 -70 4 -5 -96 -298 -106 -309
-4 -5 -71 17 -148 47 -78 30 -147 55 -152 55 -6 0 -11 14 -11 30 0 23 -5 30
-19 30 -16 0 -27 -23 -60 -120 -38 -116 -39 -121 -18 -114 12 4 33 6 47 6 22
-1 616 -202 640 -217 6 -3 10 -13 10 -21 0 -11 8 -14 27 -12 25 3 30 11 60
108 24 78 29 106 20 112 -17 11 -31 10 -43 -2 -14 -14 -114 2 -189 31 -33 12
-61 23 -63 24 -4 3 100 299 109 309 5 6 56 -8 124 -33 90 -34 115 -47 115 -62
0 -23 38 -46 45 -27 10 25 75 222 75 225 0 9 -49 1 -52 -8 -5 -15 -167 31
-417 117 -101 35 -189 64 -196 64 -16 0 -45 33 -45 52 0 9 -7 19 -16 22 -20 8
-22 8 -28 -2z"/>
<path d="M9441 6505 c-7 -19 -18 -35 -25 -35 -7 0 -53 -20 -102 -43 -49 -24
-107 -47 -129 -50 -22 -4 -109 -32 -194 -62 -85 -30 -157 -55 -162 -55 -4 0
-17 29 -29 64 -20 60 -20 67 -6 101 21 50 20 65 -5 65 -17 0 -139 -65 -139
-74 0 -6 251 -580 255 -584 7 -8 129 30 137 43 4 5 8 20 8 32 0 18 -6 22 -37
25 -35 3 -41 8 -70 63 -37 68 -41 103 -15 111 9 3 131 53 271 111 250 103 255
104 313 98 32 -4 58 -4 58 1 0 4 -13 37 -29 73 -16 36 -35 84 -43 106 -18 52
-40 56 -57 10z"/>
<path d="M9573 5903 c-13 -2 -23 -7 -23 -11 1 -23 14 -52 24 -52 7 0 24 -12
39 -27 22 -24 29 -49 51 -179 14 -84 26 -154 26 -158 0 -3 -12 -6 -27 -6 -16
0 -79 -9 -142 -20 -63 -11 -116 -19 -117 -17 -1 1 -11 58 -23 127 -18 108 -19
126 -6 133 8 4 15 17 15 27 0 17 -7 20 -52 20 -92 0 -125 -9 -138 -38 -6 -15
-8 -28 -3 -29 4 -2 22 -12 39 -22 28 -17 32 -27 52 -127 21 -102 21 -109 5
-118 -24 -14 -176 -36 -185 -28 -4 4 -21 68 -38 142 l-30 134 30 49 c16 26 30
51 30 54 0 6 -159 -3 -166 -9 -2 -2 21 -134 51 -294 30 -159 55 -290 55 -291
0 -2 10 -3 23 -3 14 0 29 10 39 28 16 26 25 29 300 80 300 56 332 59 385 40
18 -6 34 -10 37 -7 2 2 -20 139 -50 304 -30 165 -54 301 -54 303 0 3 -123 0
-147 -5z"/>
<path d="M1163 5672 c-7 -4 -32 -127 -58 -282 -25 -151 -48 -287 -51 -302 -6
-29 -5 -30 113 -43 46 -5 52 -3 58 15 5 14 -2 32 -20 55 l-26 35 16 122 c27
215 21 198 64 198 38 0 252 -28 258 -33 1 -2 -8 -59 -21 -126 -21 -110 -29
-131 -57 -143 -4 -2 -9 -13 -13 -24 -9 -31 34 -46 120 -42 67 3 69 4 72 31 2
19 -1 27 -12 27 -19 0 -19 -2 -1 130 8 58 15 108 15 113 0 4 11 7 24 7 25 0
167 -28 173 -34 2 -2 -6 -64 -17 -137 -21 -132 -37 -179 -64 -179 -10 0 -36
-39 -36 -54 0 -2 19 -6 43 -10 23 -3 58 -9 78 -12 44 -7 35 -40 89 315 31 207
37 267 27 273 -18 11 -28 10 -48 -8 -15 -14 -44 -11 -317 30 -165 25 -315 46
-332 46 -23 0 -33 5 -37 20 -6 21 -20 25 -40 12z"/>
<path d="M6890 5570 c0 -5 5 -10 11 -10 5 0 7 5 4 10 -3 6 -8 10 -11 10 -2 0
-4 -4 -4 -10z"/>
<path d="M9059 4908 c0 -90 -4 -233 -8 -318 -4 -85 -5 -163 -3 -172 4 -15 16
-18 83 -18 l79 0 0 30 c0 25 -4 30 -25 30 l-25 0 0 100 0 100 168 0 c153 0
333 -11 440 -26 32 -5 42 -11 42 -25 0 -12 7 -19 19 -19 17 0 20 11 26 116 6
94 5 118 -6 125 -23 14 -37 10 -44 -12 l-7 -22 -319 5 c-176 3 -321 7 -323 9
-1 2 2 48 7 101 8 88 11 97 31 100 15 2 22 11 24 31 l3 27 -80 0 -81 0 -1
-162z"/>
<path d="M1064 4947 c-6 -17 -22 -539 -17 -549 2 -5 44 -8 94 -8 80 0 89 2 89
19 0 10 -15 29 -34 42 -42 28 -46 47 -46 195 l0 114 223 -1 c307 -1 415 -9
431 -31 7 -10 23 -18 35 -18 20 0 21 4 21 120 0 129 -2 133 -50 105 -50 -29
-690 -13 -690 17 0 14 -50 9 -56 -5z"/>
<path d="M1615 4378 c-22 -11 -55 -40 -73 -64 -29 -40 -37 -64 -67 -221 -31
-161 -37 -179 -62 -200 -33 -26 -90 -30 -133 -8 -62 32 -89 211 -42 287 26 42
38 48 98 48 62 0 67 21 17 68 -22 20 -48 49 -58 65 -9 15 -23 27 -30 27 -22 0
-93 -77 -122 -132 -26 -50 -28 -60 -28 -183 l0 -130 41 -85 41 -85 70 -27
c113 -45 198 -33 264 39 54 57 78 136 98 310 10 95 39 153 75 153 42 0 86 -22
100 -49 8 -14 17 -60 21 -102 6 -66 4 -81 -14 -117 -19 -38 -25 -42 -60 -42
-30 0 -40 -5 -49 -24 -10 -22 -6 -28 54 -76 36 -29 68 -49 73 -44 94 113 124
227 97 369 -36 183 -183 289 -311 223z"/>
<path d="M9035 4331 c-4 -7 -35 -216 -35 -238 0 -2 13 -3 30 -3 19 0 33 7 40
20 8 16 21 20 58 20 47 0 595 -94 613 -105 5 -4 9 -15 9 -26 0 -28 38 -25 45
4 16 72 35 209 30 217 -9 15 -26 12 -40 -7 -11 -15 -36 -13 -326 35 -173 29
-325 52 -337 52 -16 0 -26 7 -29 20 -6 21 -47 28 -58 11z"/>
<path d="M9024 3991 c-98 -66 -175 -223 -176 -359 0 -65 3 -78 33 -128 19 -30
47 -62 64 -71 41 -21 156 -29 194 -13 34 14 99 93 161 195 23 39 63 91 88 118
54 55 87 61 143 23 29 -20 38 -34 43 -67 14 -90 -25 -207 -83 -248 -34 -25
-98 -28 -127 -6 -25 19 -31 19 -43 -3 -7 -13 -3 -40 14 -97 13 -42 26 -80 29
-82 6 -7 89 19 106 33 8 6 25 15 36 18 29 9 107 93 132 143 46 89 63 214 42
298 -29 110 -38 124 -104 155 -88 42 -129 46 -197 21 -70 -27 -136 -95 -198
-207 -63 -112 -95 -144 -145 -144 -47 0 -58 6 -75 37 -28 53 2 165 61 229 l40
43 59 -6 c69 -7 69 -7 35 87 -30 83 -48 87 -132 31z"/>
<path d="M1910 3820 c0 -5 5 -10 10 -10 6 0 10 -12 10 -28 0 -22 -6 -29 -37
-40 -21 -7 -58 -17 -83 -22 -55 -11 -81 -19 -190 -60 -48 -18 -128 -38 -185
-46 -89 -12 -165 -26 -217 -40 -17 -5 -17 -7 -1 -31 9 -14 27 -62 38 -107 18
-67 26 -82 43 -84 16 -3 26 5 38 31 19 39 40 51 123 72 52 13 209 60 276 83
151 52 223 62 276 38 11 -5 19 1 27 18 9 20 8 36 -7 78 -11 29 -26 67 -35 83
-9 17 -16 35 -16 41 0 11 -42 34 -60 34 -6 0 -10 -4 -10 -10z"/>
<path d="M2043 3527 c-17 -35 -29 -46 -60 -55 -22 -7 -150 -61 -284 -122 -226
-102 -247 -110 -288 -104 -54 8 -66 -7 -40 -50 10 -17 19 -38 19 -46 0 -23 49
-90 65 -90 7 0 19 16 26 35 7 19 22 38 33 41 12 4 28 12 36 19 20 16 429 187
439 183 5 -2 -35 -119 -88 -262 l-97 -259 -59 -29 c-49 -25 -66 -29 -103 -24
-74 10 -77 -3 -29 -100 34 -69 46 -84 65 -84 17 0 27 10 41 43 17 40 24 45 82
66 35 12 120 48 189 81 296 138 311 144 345 131 40 -14 42 -14 49 4 8 21 -58
151 -83 165 -17 8 -20 6 -26 -19 -7 -32 -10 -34 -169 -105 -119 -54 -123 -52
-77 47 21 46 60 157 86 247 l48 164 -42 83 c-22 46 -44 83 -49 83 -4 0 -17
-19 -29 -43z"/>
<path d="M8800 3300 c-8 -5 -25 -10 -38 -10 -27 0 -102 -67 -145 -129 -27 -40
-177 -332 -177 -346 0 -3 19 -5 42 -5 45 0 189 -71 461 -228 122 -70 147 -89
147 -108 0 -19 34 -44 45 -32 1 1 28 54 59 116 51 102 54 112 35 112 -11 0
-29 -5 -39 -10 -16 -8 -44 2 -144 52 l-125 63 29 51 30 51 82 6 c46 4 135 7
199 7 l117 0 44 73 c25 39 48 77 52 84 11 20 -41 28 -62 10 -13 -11 -58 -16
-194 -20 l-178 -6 0 67 c0 60 -4 72 -35 118 -30 43 -45 55 -94 73 -64 23 -88
26 -111 11z m70 -181 c56 -20 60 -24 60 -53 0 -37 -79 -236 -97 -243 -14 -6
-84 29 -170 83 l-62 40 72 103 c82 117 75 115 197 70z"/>
<path d="M2210 2776 c-30 -7 -87 -31 -126 -54 l-71 -42 -58 -124 -57 -124 10
-79 c6 -44 24 -114 41 -156 26 -69 42 -91 142 -197 82 -88 118 -120 135 -120
20 0 24 5 24 33 0 31 10 43 105 123 85 72 113 90 145 94 l41 5 -71 85 c-39 47
-74 86 -79 88 -8 3 -22 -24 -26 -48 -2 -14 -187 -190 -200 -190 -22 0 -83 97
-105 169 -12 37 -20 92 -20 133 l0 69 91 94 c108 112 148 131 241 116 100 -17
156 -56 197 -138 29 -58 27 -87 -8 -115 -35 -28 -48 -63 -26 -72 8 -3 51 -3
95 1 92 7 96 12 85 95 -12 88 -56 168 -133 246 -39 39 -81 73 -94 77 -13 3
-32 10 -43 14 -84 34 -140 38 -235 17z"/>
<path d="M8193 2548 c-131 -154 -242 -297 -243 -310 0 -5 15 -8 34 -8 19 0 38
-5 41 -11 10 -15 311 -277 402 -349 67 -54 79 -68 83 -99 4 -25 10 -36 22 -36
13 0 240 244 424 456 12 14 7 21 -44 62 -31 26 -62 47 -69 47 -22 0 -33 -35
-23 -70 9 -32 7 -36 -95 -146 -58 -62 -105 -118 -105 -124 0 -5 -10 -10 -21
-10 -29 0 -149 98 -149 122 0 10 -7 18 -16 18 -9 0 -29 10 -46 21 l-30 22 93
93 c79 79 99 94 125 94 21 0 34 6 39 18 6 17 -15 40 -104 109 -32 26 -33 26
-44 7 -6 -10 -11 -29 -11 -41 -1 -24 -142 -213 -159 -213 -6 0 -41 24 -79 52
-45 35 -68 58 -66 70 2 9 47 67 102 128 91 102 101 110 135 110 30 0 40 5 54
29 l17 29 -51 41 c-29 23 -60 41 -69 41 -11 0 -71 -63 -147 -152z"/>
<path d="M2826 2335 c-4 -14 -4 -30 0 -36 3 -5 -25 -42 -63 -82 -37 -40 -135
-148 -218 -240 -133 -148 -153 -167 -181 -167 -23 0 -34 -6 -42 -24 -10 -23
-6 -30 68 -96 72 -64 80 -69 103 -59 17 8 23 17 20 32 -3 16 22 51 93 132 54
61 101 111 106 113 4 2 51 -34 103 -80 l96 -83 -6 -42 c-6 -41 -5 -43 18 -43
18 0 42 19 86 69 58 65 61 70 42 80 -11 6 -32 11 -46 11 -29 0 -133 84 -185
150 l-28 36 58 69 c33 38 64 71 70 73 14 5 255 -229 254 -245 -1 -7 -4 -23 -8
-36 -4 -19 0 -26 22 -36 25 -12 29 -10 74 41 26 29 48 60 48 69 0 8 -56 64
-125 123 -68 59 -171 150 -227 201 -57 52 -108 95 -114 95 -7 0 -15 -11 -18
-25z"/>
<path d="M7819 2161 c-24 -15 -57 -42 -72 -58 l-28 -30 39 -15 c33 -13 40 -21
46 -53 4 -21 28 -99 53 -174 63 -189 104 -343 89 -334 -7 5 -112 80 -234 168
l-222 160 0 43 c0 27 -4 42 -12 42 -7 0 -51 -27 -98 -61 -47 -33 -129 -82
-182 -110 -54 -27 -98 -55 -98 -63 0 -9 -7 -12 -18 -9 -10 2 -57 -10 -105 -27
-64 -24 -87 -36 -87 -49 0 -22 31 -51 53 -51 9 0 21 -8 26 -18 16 -29 91 -235
88 -238 -2 -2 -111 39 -242 92 -139 56 -247 94 -259 91 -12 -3 -34 -10 -51
-16 -16 -6 -49 -16 -72 -21 -31 -8 -43 -16 -43 -29 0 -23 31 -51 56 -51 16 0
27 -25 63 -133 24 -72 52 -149 62 -169 11 -21 19 -46 19 -56 0 -11 21 -68 46
-128 44 -106 45 -110 30 -141 l-16 -33 35 0 c35 0 154 46 167 65 13 18 9 25
-15 25 -13 0 -31 8 -39 18 -17 19 -170 390 -192 465 -10 34 -11 47 -3 46 7 0
129 -51 272 -112 l259 -112 23 -74 c20 -66 21 -77 8 -101 -26 -50 9 -53 109
-11 89 37 99 54 48 80 -47 24 -63 61 -173 390 -65 194 -76 236 -66 252 15 24
59 25 79 2 25 -30 298 -548 298 -567 0 -9 -5 -26 -10 -36 -6 -12 -6 -21 -1
-25 14 -8 193 71 209 92 18 25 15 43 -8 43 -47 0 -70 33 -205 295 -74 145
-135 273 -135 284 0 43 47 20 265 -132 121 -84 261 -181 312 -216 l92 -63 46
33 c62 45 80 79 61 117 -19 38 -79 233 -115 379 -17 66 -45 159 -61 204 -24
63 -30 92 -25 121 8 47 -4 49 -66 9z"/>
<path d="M3342 1810 c-112 -24 -241 -127 -297 -239 -40 -80 -46 -211 -15 -307
20 -61 31 -77 99 -143 103 -100 136 -114 284 -119 175 -6 234 17 338 134 44
50 60 78 83 148 32 95 32 117 -4 236 -20 67 -29 82 -97 151 -69 71 -81 80
-161 108 -98 35 -167 44 -230 31z m201 -120 c50 -16 73 -30 105 -64 67 -72 76
-97 68 -194 -8 -104 -28 -147 -110 -230 -72 -75 -107 -92 -202 -99 l-71 -6
-74 56 c-95 72 -113 102 -114 192 0 60 5 80 36 146 47 98 96 152 173 189 72
35 102 37 189 10z"/>
<path d="M3997 1548 c-2 -7 2 -23 10 -35 12 -18 12 -30 -2 -85 -32 -126 -83
-260 -171 -450 -40 -88 -53 -108 -70 -108 -14 0 -24 -8 -27 -22 -4 -12 -5 -22
-4 -23 1 0 52 -17 112 -38 61 -20 113 -37 116 -37 13 0 19 32 9 49 -7 14 1 51
32 142 22 68 44 128 49 133 12 13 121 -34 115 -50 -3 -7 13 -96 34 -196 22
-100 40 -184 40 -185 0 -2 7 -3 16 -3 9 0 47 -9 85 -21 57 -17 72 -19 85 -8
14 11 13 14 -5 28 -16 12 -30 57 -61 190 -22 96 -38 176 -36 179 3 2 40 9 83
15 72 11 81 15 119 54 59 60 71 141 33 219 -37 78 -116 130 -259 174 -41 12
-117 38 -169 56 -102 37 -127 41 -134 22z m277 -168 c31 -10 76 -33 100 -51
42 -29 45 -35 51 -92 7 -60 7 -61 -26 -89 -29 -24 -43 -27 -97 -28 -48 0 -191
29 -219 45 -7 3 31 129 54 178 31 66 43 70 137 37z"/>
<path d="M6205 1383 c-44 -8 -83 -19 -86 -25 -11 -18 0 -36 26 -42 14 -4 29
-15 35 -26 23 -42 131 -516 128 -560 l-3 -45 -105 -8 c-114 -10 -122 -7 -202
56 -47 37 -65 84 -79 200 -15 133 0 204 66 312 14 22 25 51 25 63 0 22 -3 23
-42 17 -109 -17 -177 -37 -183 -53 -3 -9 -2 -18 3 -20 37 -12 41 -26 27 -87
-7 -33 -21 -87 -30 -120 -10 -33 -18 -96 -18 -140 -1 -66 4 -90 26 -138 31
-68 93 -142 145 -175 35 -21 44 -22 167 -16 81 3 167 14 230 29 55 13 121 27
147 30 58 9 68 29 25 51 -18 9 -35 22 -39 28 -12 19 -86 333 -113 479 -23 125
-24 141 -10 160 36 51 7 57 -140 30z"/>
<path d="M4835 1343 c-16 -2 -63 -18 -103 -35 -63 -27 -76 -37 -94 -72 -47
-94 -45 -163 7 -223 35 -41 90 -72 225 -123 47 -18 92 -39 101 -47 8 -7 20
-13 26 -13 19 0 31 -25 38 -81 l7 -56 -44 -32 c-42 -32 -44 -33 -128 -28 -138
8 -208 52 -197 123 3 20 14 45 23 55 15 17 15 19 -8 29 -20 9 -38 7 -98 -14
-108 -38 -111 -48 -42 -138 53 -70 135 -133 196 -149 58 -16 243 -16 288 0 46
15 123 78 149 120 10 17 24 52 29 77 14 63 -15 130 -84 189 -28 25 -55 45 -60
45 -5 0 -17 6 -25 14 -9 8 -62 33 -118 54 -128 50 -163 74 -163 111 0 40 66
91 118 91 61 0 127 -24 177 -65 36 -30 44 -42 39 -59 -3 -12 -8 -28 -10 -37
-3 -11 4 -19 20 -23 20 -5 39 4 88 40 35 25 64 47 66 49 12 11 -29 50 -110
103 -75 50 -109 65 -178 82 -47 11 -89 19 -95 18 -5 0 -23 -3 -40 -5z"/>
</g>
</svg>
