<?xml version="1.0" encoding="UTF-8" standalone="no"?>
<svg
   xmlns:dc="http://purl.org/dc/elements/1.1/"
   xmlns:cc="http://creativecommons.org/ns#"
   xmlns:rdf="http://www.w3.org/1999/02/22-rdf-syntax-ns#"
   xmlns:svg="http://www.w3.org/2000/svg"
   xmlns="http://www.w3.org/2000/svg"
   xmlns:sodipodi="http://sodipodi.sourceforge.net/DTD/sodipodi-0.dtd"
   xmlns:inkscape="http://www.inkscape.org/namespaces/inkscape"
   width="272.70001mm"
   height="190mm"
   viewBox="0 0 272.70001 190"
   version="1.1"
   id="svg8"
   inkscape:version="1.0.2-2 (e86c870879, 2021-01-15)"
   sodipodi:docname="Cover_inkscape.svg">
  <defs
     id="defs2">
    <rect
       x="71.360964"
       y="41.694046"
       width="31.805074"
       height="21.916101"
       id="rect207" />
    <clipPath
       id="clip1">
      <path
         id="path3799"
         d="M 160 359.515625 L 206 359.515625 L 206 406 L 160 406 Z M 160 359.515625 " />
    </clipPath>
    <clipPath
       id="clip2">
      <path
         id="path3802"
         d="M 218 359.515625 L 252 359.515625 L 252 400 L 218 400 Z M 218 359.515625 " />
    </clipPath>
    <clipPath
       id="clip3">
      <path
         id="path3805"
         d="M 399 563 L 439.179688 563 L 439.179688 597 L 399 597 Z M 399 563 " />
    </clipPath>
  </defs>
  <sodipodi:namedview
     id="base"
     pagecolor="#ffffff"
     bordercolor="#666666"
     borderopacity="1.0"
     inkscape:pageopacity="1"
     inkscape:pageshadow="2"
     inkscape:zoom="0.7"
     inkscape:cx="623.13112"
     inkscape:cy="436.13885"
     inkscape:document-units="mm"
     inkscape:current-layer="layer1"
     inkscape:document-rotation="0"
     showgrid="false"
     showguides="true"
     inkscape:guide-bbox="true"
     inkscape:window-width="1624"
     inkscape:window-height="1020"
     inkscape:window-x="108"
     inkscape:window-y="0"
     inkscape:window-maximized="0"
     inkscape:pagecheckerboard="false">
    <sodipodi:guide
       position="18.000001,154.72042"
       orientation="-1,0"
       id="guide10"
       inkscape:label=""
       inkscape:locked="false"
       inkscape:color="rgb(0,0,255)" />
    <sodipodi:guide
       position="254.70001,144.56418"
       orientation="-1,0"
       id="guide12"
       inkscape:label=""
       inkscape:locked="false"
       inkscape:color="rgb(0,0,255)" />
    <sodipodi:guide
       position="26.459685,174.00001"
       orientation="0,1"
       id="guide14"
       inkscape:label=""
       inkscape:locked="false"
       inkscape:color="rgb(0,0,255)" />
    <sodipodi:guide
       position="23.520001,16.000001"
       orientation="0,1"
       id="guide16"
       inkscape:label=""
       inkscape:locked="false"
       inkscape:color="rgb(0,0,255)" />
    <sodipodi:guide
       position="118.00001,161.13489"
       orientation="-1,0"
       id="guide18"
       inkscape:label=""
       inkscape:locked="false"
       inkscape:color="rgb(0,0,255)" />
    <sodipodi:guide
       position="127.00001,161.9367"
       orientation="-1,0"
       id="guide20"
       inkscape:label=""
       inkscape:locked="false"
       inkscape:color="rgb(0,0,255)" />
    <sodipodi:guide
       position="145.70001,158.99674"
       orientation="-1,0"
       id="guide22"
       inkscape:label=""
       inkscape:locked="false"
       inkscape:color="rgb(0,0,255)" />
    <sodipodi:guide
       position="154.70001,148.84049"
       orientation="-1,0"
       id="guide24"
       inkscape:label=""
       inkscape:locked="false"
       inkscape:color="rgb(0,0,255)" />
    <sodipodi:guide
       position="204.70001,174"
       orientation="-1,0"
       id="guide197"
       inkscape:label=""
       inkscape:locked="false"
       inkscape:color="rgb(0,0,255)" />
    <sodipodi:guide
       position="136.35001,179.84376"
       orientation="-1,0"
       id="guide199"
       inkscape:label=""
       inkscape:locked="false"
       inkscape:color="rgb(0,0,255)" />
  </sodipodi:namedview>
  <metadata
     id="metadata5">
    <rdf:RDF>
      <cc:Work
         rdf:about="">
        <dc:format>image/svg+xml</dc:format>
        <dc:type
           rdf:resource="http://purl.org/dc/dcmitype/StillImage" />
        <dc:title></dc:title>
      </cc:Work>
    </rdf:RDF>
  </metadata>
  <g
     inkscape:label="Layer 1"
     inkscape:groupmode="layer"
     id="layer1">
    <text
       xml:space="preserve"
       style="font-size:17.4832px;line-height:1.25;font-family:'Times New Roman';-inkscape-font-specification:'Times New Roman, ';stroke-width:0.262248"
       x="174.19244"
       y="141.3864"
       id="text203"
       transform="scale(0.99666178,1.0033494)"><tspan
         sodipodi:role="line"
         id="tspan201"
         x="174.19244"
         y="141.3864"
         style="stroke-width:0.262248">Sångbok</tspan></text>
    <text
       xml:space="preserve"
       id="text205"
       style="line-height:1.25;font-family:'Times New Roman';font-size:17.63888889px;-inkscape-font-specification:'Times New Roman, ';white-space:pre;shape-inside:url(#rect207);" />
    <g
       id="surface1"
       transform="matrix(0.16784018,0,0,0.16657712,167.445,-21.435079)">
      <path
         id="path3810"
         d="m 156.71094,548.94141 c 15.76172,-0.42969 133.0625,5.5625 133.0625,5.5625 l 53.15625,97.375 -248.531252,-0.3125 c -0.234376,0 59.855472,-101.67188 60.562502,-102.4375 0.0859,-0.0899 0.69922,-0.15625 1.75,-0.1875 z m 121.34375,-13.1875 c 7.14843,11.04687 2.09765,2.88281 6.90625,11.15625 -8.98047,-0.36329 -91.0625,-3.25 -91.0625,-3.25 z m -56.40625,-100.1875 c 0.6914,0.27734 52.6289,92.87109 52.1875,93.125 -0.4375,0.2539 -112.4375,11.10937 -112.4375,10.8125 0,-1.69141 59.46484,-104.25 60.25,-103.9375 z m 0.40625,-13.0625 c -0.39453,0 -63.92188,110.63671 -69.25,118.1875 -15.32422,4.875 -76.480471,23.45312 -78.406252,23.84375 -4.132813,0.84375 -4.835938,1.73437 -4.1875,5.125 0.289062,1.50781 0.625,2.24218 2.5625,2.09375 1.9375,-0.14454 74.343752,-22.89844 74.343752,-21.875 0,0.26171 -64.718752,107.57421 -64.718752,108.125 0,0.66796 272.656252,0.39062 272.656252,0.15625 0,-0.57422 -51.44922,-89.58204 -57.0625,-102.03125 0.60937,-0.29297 55.61328,23.54687 68,28.53125 1.02343,0.41406 3.92187,-4.48438 3.125,-5.28125 -0.20703,-0.20704 -71.91797,-30.55079 -74.6875,-32.1875 -1.34375,-2.20313 -2.03516,-3.35938 -2.875,-4.71875 -0.70703,-1.28516 -1.83985,-3.28907 -3.5625,-6.3125 0.77343,-0.14454 73.14062,5.64062 73.75,5.25 0.61328,-0.38672 1.67578,-6.73829 1.5,-6.90625 -0.17188,-0.16407 -80.875,-6.75 -80.875,-6.75 l -60.3125,-105.25"
         style="fill:#0f0c0c;fill-opacity:1;fill-rule:nonzero;stroke:none" />
      <path
         id="path3812"
         d="m 92.554688,425.85547 -11.492188,-14.6875 3.441406,-2.69141 c 4.765625,-3.72656 8.367188,-4.48047 11.679688,-0.24609 3.242187,4.14453 1.699218,9.26172 -3.628906,17.625 m 2.023437,18.67969 9.617185,-7.52344 -1.48437,-1.89453 c -1.5586,1.0039 -2.45313,0.49609 -3.765628,-1.17969 l -3.347656,-4.27734 c 9.058594,-11.77735 11.628904,-19.40235 6.175784,-26.3711 -2.378909,-3.04687 -5.785159,-4.57812 -9.496096,-4.23437 -3.265625,0.28125 -5.714844,2.05468 -8.714844,4.40234 l -13.101562,10.24609 1.484374,1.89844 c 1.601563,-1.04297 2.359376,-0.71094 3.5,0.7461 l 17.769532,22.71484 c 1.136718,1.45703 1.277344,2.26953 -0.121094,3.57422 l 1.484375,1.89844"
         style="fill:#0f0c0c;fill-opacity:1;fill-rule:nonzero;stroke:none" />
      <path
         id="path3814"
         d="m 146.91406,406.51562 -13.26562,5.13672 -5.46094,-14.10156 10.86328,-4.20703 c 2.29688,-0.89063 3.27344,-0.84766 4.375,1.06641 l 2.08984,-0.8086 -3.5,-9.03125 -2.08593,0.8086 c 0.36718,2.5 -0.95313,3.1289 -3.875,4.26171 l -9.50391,3.67969 -3.58203,-9.24219 13.00391,-5.03515 c 2.71484,-1.05078 3.98828,-1.48438 5.80468,0.875 l 2.2461,-0.8711 -2.79297,-7.20703 -29.19141,11.3086 0.8711,2.24609 c 1.83593,-0.53125 2.46484,0.004 3.13281,1.72656 l 10.41406,26.89453 c 0.66797,1.72266 0.56641,2.54297 -1.14844,3.38672 l 0.8711,2.2461 30.54687,-11.83203 -2.95312,-7.625 -2.45313,0.95312 c 0.41016,3.08203 -1.0664,4.07422 -4.40625,5.37109"
         style="fill:#0f0c0c;fill-opacity:1;fill-rule:nonzero;stroke:none" />
      <g
         id="g3818"
         clip-rule="nonzero"
         clip-path="url(#clip1)">
        <path
           id="path3816"
           d="m 174.85547,388.41016 4.35937,-6.70704 13.75391,13.57422 c 0.35547,0.32422 0.64453,0.60547 0.73437,1.04688 0.11719,0.54687 -0.30468,0.98047 -1.18359,1.16406 -0.16406,0.0352 -0.38281,0.082 -0.61328,0.0742 l 0.5,2.35547 12.65625,-2.6836 -0.5,-2.35546 c -1.28516,0.16015 -2.08203,-0.64454 -3.30469,-1.81641 l -17.88281,-17.39063 6.875,-10.5 c 1.22266,-1.80468 2.53906,-2.88671 4.40234,-3.28125 l -0.5,-2.35546 -13.85937,2.9375 0.49609,2.35546 c 0.21094,-0.10156 0.42969,-0.14843 0.59375,-0.18359 0.92969,-0.19531 1.57031,0.125 1.69922,0.72656 0.10547,0.4961 -0.14453,0.94922 -0.48828,1.48047 l -9.22656,14.26172 -2.4375,-11.50391 c -0.36328,-1.69921 -0.0195,-2.51562 1.58984,-3.02734 l -0.5,-2.35547 -11.77734,2.4961 0.49609,2.35546 c 1.89844,-0.23046 2.43359,0.39844 2.81641,2.20704 l 5.98047,28.21093 c 0.38281,1.8125 0.14843,2.60547 -1.67969,3.16407 l 0.5,2.35546 11.72265,-2.48437 -0.49609,-2.35547 c -1.67969,0.18359 -2.32422,-0.42578 -2.68359,-2.12109 l -2.04297,-9.64453"
           style="fill:#0f0c0c;fill-opacity:1;fill-rule:nonzero;stroke:none" />
      </g>
      <g
         id="g3822"
         clip-rule="nonzero"
         clip-path="url(#clip2)">
        <path
           id="path3820"
           d="m 227.19531,399.14453 12.13672,0.65625 0.12891,-2.40625 c -1.5625,-0.19531 -2.1875,-1.07031 -2.08985,-2.85937 l 1.5625,-28.96875 6.26172,0.33984 c 2.34766,0.125 3.52735,1.19922 3.57813,3.33203 l 2.29297,0.125 0.4375,-8.10937 -32.26563,-1.73829 -0.4375,8.10547 2.29297,0.125 c 0.28516,-2.17187 1.56641,-3.05468 3.91406,-2.92968 l 6.26563,0.33593 -1.5625,28.96875 c -0.0977,1.78907 -0.41797,2.5586 -2.38672,2.61719 l -0.12891,2.40625"
           style="fill:#0f0c0c;fill-opacity:1;fill-rule:nonzero;stroke:none" />
      </g>
      <path
         id="path3824"
         d="m 273.74219,386.03906 3.72265,-12.21484 6.26563,1.91015 c 5.03515,1.53516 6.92578,4.7461 5.8164,8.38672 -1.73046,5.67969 -5.73437,4.98438 -11.89453,3.10938 l -3.91015,-1.19141 m -15.79688,17.83985 11.67578,3.55859 0.70313,-2.30078 c -2.02344,-0.85156 -1.73438,-1.99219 -0.96875,-4.51172 l 3.10156,-10.17969 5.35547,1.63281 4.39844,19.19532 8.94531,2.72656 0.63672,-2.08984 c -1.4336,-0.67188 -2.08594,-1.80469 -2.5586,-3.70704 l -3.71875,-14.89062 c 5.38282,0.58984 9.69922,-2.42969 11.23438,-7.46484 1.79297,-5.89454 -1.30859,-11.46094 -9.87891,-14.07422 l -17.51953,-5.33594 -0.69922,2.30078 c 1.77344,0.71484 1.9336,1.52734 1.39453,3.29688 l -8.40625,27.58593 c -0.53906,1.76953 -1.125,2.35157 -2.99609,1.95703 l -0.69922,2.30079"
         style="fill:#0f0c0c;fill-opacity:1;fill-rule:nonzero;stroke:none" />
      <path
         id="path3826"
         d="m 320.07031,386.16016 c 1.10938,0.86328 1.53125,1.33984 1.22266,1.80859 -0.70313,1.07812 -2.84375,1.68359 -5.90625,3.49609 -4.25,2.5 -7.66406,4.94922 -10.27344,8.92969 -3.71875,5.66797 -4.28125,11.12109 -1.69531,16.36719 1.95703,3.96094 5.51562,6.29687 9.82422,9.12109 l 12.97265,8.50781 1.32032,-2.01562 c -1.65625,-1.35547 -1.15235,-2.42969 0.41406,-4.81641 l 15.04687,-22.94922 c 0.92188,-1.40625 2.03516,-1.67578 3.36328,-0.9414 l 1.32032,-2.01172 -10.16407,-6.66406 -1.32031,2.01172 c 1.5,1.18359 1.38281,1.97656 0.3711,3.52343 l -15.72266,23.97657 -3.32422,-2.17969 c -3.74609,-2.45703 -6.43359,-4.28516 -7.51172,-7.33594 -1.2539,-3.5 -0.58594,-7.48047 2.11719,-11.60156 2.14844,-3.28125 5.09375,-6.03516 8.89844,-8.36328 3.15234,-1.94922 5.67578,-3.04297 8.76953,-2.55078 l 1.16797,-1.78125 -9.69532,-6.35547 -1.19531,1.82422"
         style="fill:#0f0c0c;fill-opacity:1;fill-rule:nonzero;stroke:none" />
      <path
         id="path3828"
         d="m 335.88281,438.88672 6.60547,7.16406 1.76953,-1.63281 c -0.74609,-1.14063 -0.71875,-1.77344 0.0625,-2.49219 0.53516,-0.49609 1.06641,-0.91016 1.55469,-1.20703 l 20.56641,-13.62891 -11.15235,19.87891 3.49219,3.78906 21.58984,-8.55469 -15.78515,19.80469 c -0.25,0.3086 -0.4961,0.53516 -0.70313,0.72656 -0.98828,0.91016 -1.73828,0.83985 -2.88672,-0.15625 l -1.76953,1.62891 7.85547,8.52344 1.76953,-1.62891 c -1.16406,-1.51562 -0.65234,-2.44531 0.64063,-4.01953 l 17.65625,-21.91016 c 0.33593,-0.46093 0.70703,-0.80078 0.95312,-1.03125 0.98828,-0.91015 1.625,-0.96484 2.73047,0.0742 l 1.73047,-1.59765 -7.28906,-7.90235 -19.85938,7.94922 10.33203,-18.28515 -7.32422,-7.94532 -1.73046,1.59375 c 0.94921,1.02735 1,1.74219 0.17578,2.50391 -0.57422,0.53125 -1.19141,1.01953 -1.67578,1.31641 l -22.51172,14.58203 c -2.15625,1.3789 -3.13672,2.1289 -5.02735,0.82422 l -1.76953,1.63281"
         style="fill:#0f0c0c;fill-opacity:1;fill-rule:nonzero;stroke:none" />
      <path
         id="path3830"
         d="m 57.84375,470.55859 c 8.230469,1.41797 13.753906,-0.58984 18.910156,-6.9375 6.742188,-8.30078 6.050782,-16.51172 0.355469,-21.13672 -5.085937,-4.1289 -10.535156,-2.92578 -17.667969,2.39063 -5.65625,4.21094 -8.6875,7.58984 -11.816406,5.04687 -2.21875,-1.80078 -2.054688,-5.20312 0.910156,-8.85156 3.25,-4 7.34375,-5.22265 9.429688,-3.52734 0.433594,0.35547 0.71875,0.80078 1.066406,1.4414 l 2.230469,-0.34765 -0.566407,-8.54297 c -6.46875,-0.20313 -11.65625,2.36328 -16.210937,7.97266 -5.613281,6.91015 -5.390625,14.45312 -0.652344,18.30078 4.824219,3.91797 9.53125,2.47265 15.792969,-2.03516 3.667969,-2.64844 6.027344,-4.84766 7.816406,-5.62891 2.289063,-0.95312 4.214844,-0.83593 5.867188,0.50782 2.867187,2.32812 2.714844,6.60547 -0.921875,11.08203 -3.460938,4.26172 -7.480469,5.03515 -9.871094,3.09375 -0.824219,-0.67188 -1.195313,-1.54688 -1.441406,-2.75781 l -2.414063,0.13281 -0.816406,9.79687"
         style="fill:#0f0c0c;fill-opacity:1;fill-rule:nonzero;stroke:none" />
      <path
         id="path3832"
         d="m 19.246094,488.08984 -4.003906,11.53516 2.273437,0.78906 c 0.691406,-1.48047 1.582031,-1.82031 3.222656,-1.2539 l 13.488281,4.68359 -5.96875,17.19531 L 14.875,516.39062 c -1.746094,-0.60546 -2.304688,-1.21484 -1.839844,-3.07031 l -2.273437,-0.78906 -4.003907,11.53516 2.273438,0.78906 c 0.726562,-1.58594 1.617188,-1.75 3.203125,-1.19922 l 27.457031,9.53125 c 1.640625,0.57031 2.160156,1.28516 1.769532,2.92578 l 2.273437,0.78906 4.003906,-11.53125 -2.273437,-0.78906 c -0.785156,1.74219 -1.601563,1.875 -3.347656,1.26953 l -9.46875,-3.28906 5.96875,-17.19531 9.578124,3.32812 c 1.640626,0.56641 2.125,1.38672 1.75,2.97656 l 2.273438,0.78907 4.003906,-11.53125 -2.273437,-0.78907 c -0.78125,1.74219 -1.597657,1.875 -3.34375,1.26954 l -27.246094,-9.46094 c -1.746094,-0.60547 -2.304687,-1.21485 -1.839844,-3.06641 l -2.273437,-0.79297"
         style="fill:#0f0c0c;fill-opacity:1;fill-rule:nonzero;stroke:none" />
      <path
         id="path3834"
         d="m 6.074219,557.44531 1.410156,-14.15625 15.042969,1.5 -1.152344,11.58985 c -0.246094,2.45312 -0.722656,3.30468 -2.929688,3.42578 l -0.222656,2.22656 9.640625,0.96094 0.222657,-2.23047 c -2.398438,-0.80078 -2.363282,-2.25781 -2.054688,-5.37891 l 1.011719,-10.14453 9.863281,0.98438 -1.382812,13.875 c -0.289063,2.89453 -0.476563,4.23046 -3.402344,4.78125 l -0.238282,2.39453 7.691407,0.76562 3.101562,-31.14844 -2.398437,-0.23828 c -0.355469,1.87891 -1.117188,2.19532 -2.957032,2.01172 L 8.621094,535.80859 c -1.835938,-0.18359 -2.523438,-0.64843 -2.5,-2.55859 l -2.398438,-0.23828 -3.246094,32.59765 8.136719,0.8125 0.261719,-2.62109 c -2.9375,-1.02344 -3.15625,-2.78906 -2.800781,-6.35547"
         style="fill:#0f0c0c;fill-opacity:1;fill-rule:nonzero;stroke:none" />
      <path
         id="path3836"
         d="M 0.761719,568.22266 0,598.00391 l 8.84375,0.22656 0.070312,-2.63281 c -3.839843,-1.10547 -4.03125,-2.39844 -3.933593,-6.14844 L 5.265625,578.25 l 29.222656,0.74609 c 1.734375,0.0469 2.71875,0.96875 2.679688,2.53516 l 2.40625,0.0625 0.316406,-12.37109 -2.40625,-0.0625 c -0.214844,1.89843 -0.953125,2.26953 -2.800781,2.22265 L 5.851562,570.64844 c -1.847656,-0.0469 -2.5625,-0.45703 -2.683593,-2.36719 l -2.40625,-0.0586"
         style="fill:#0f0c0c;fill-opacity:1;fill-rule:nonzero;stroke:none" />
      <path
         id="path3838"
         d="m 172.62109,778.33594 c 2.72266,7.89062 7.14063,11.76953 15.1836,13.22656 10.52343,1.91406 17.38672,-2.64844 18.69531,-9.86328 1.17187,-6.44922 -2.50391,-10.64453 -10.60156,-14.33594 -6.41016,-2.92578 -10.83594,-3.95703 -10.11328,-7.92578 0.51171,-2.80859 3.57031,-4.30078 8.19921,-3.46094 5.07032,0.91797 8.10938,3.91797 7.62891,6.5625 -0.0977,0.55078 -0.35547,1.01953 -0.75,1.62891 l 1.38281,1.78906 7.21094,-4.60937 c -2.9375,-5.76954 -7.6875,-9.08204 -14.79297,-10.3711 -8.76172,-1.58984 -15.26172,2.23828 -16.35156,8.24219 -1.11328,6.11719 2.42187,9.54687 9.38672,12.86328 4.08984,1.9375 7.15234,2.94531 8.69922,4.13672 1.9375,1.55078 2.75781,3.29297 2.3789,5.38672 -0.66015,3.63672 -4.48047,5.55859 -10.15625,4.52734 -5.39843,-0.98047 -8.01562,-4.1289 -7.46484,-7.16015 0.19141,-1.04688 0.78125,-1.79297 1.72266,-2.58985 l -1.27735,-2.05078 -8.98047,4.00391"
         style="fill:#0f0c0c;fill-opacity:1;fill-rule:nonzero;stroke:none" />
      <path
         id="path3840"
         d="m 8.828125,637.76562 3.472656,11.70313 2.308594,-0.6875 c -0.316406,-1.65625 0.222656,-2.40234 1.886719,-2.89453 l 27.863281,-8.26953 c 1.664063,-0.49219 2.519531,-0.16407 3.160156,1.39843 l 2.308594,-0.68359 -3.472656,-11.70312 -2.308594,0.68359 c 0.378906,1.875 -0.207031,2.45703 -1.980469,2.98437 L 14.417969,638.5 c -1.769531,0.52344 -2.578125,0.35547 -3.28125,-1.42188 l -2.308594,0.6875"
         style="fill:#0f0c0c;fill-opacity:1;fill-rule:nonzero;stroke:none" />
      <path
         id="path3842"
         d="m 14.542969,655.49219 4.332031,9.34765 2.183594,-1.01172 c -0.679688,-1.59765 -0.105469,-2.35546 1.976562,-3.32421 l 23.628906,-10.94532 -9.527343,26.32422 -6.199219,2.875 c -1.730469,0.79688 -2.527344,0.67578 -3.40625,-0.95703 l -2.183594,1.01563 4.140625,8.9414 2.1875,-1.01172 c -0.71875,-1.95312 0.09375,-2.32812 1.820313,-3.1289 l 25.964844,-12.02735 c 1.777343,-0.82422 2.726562,-0.64453 3.484374,0.85547 l 2.132813,-0.99219 -4.121094,-8.89062 -2.132812,0.98828 c 0.601562,1.69531 0.28125,2.33984 -1.242188,3.04688 l -11.128906,5.15625 8.363281,-22.45313 -4.640625,-10.01172 -2.132812,0.99219 c 0.4375,1.33984 0.207031,2.30859 -0.503907,2.64062 L 20.40625,655.49219 c -1.933594,0.89453 -2.808594,0.86718 -3.609375,-0.85938 l -0.07031,-0.15234 -2.183593,1.01172"
         style="fill:#0f0c0c;fill-opacity:1;fill-rule:nonzero;stroke:none" />
      <path
         id="path3844"
         d="m 58.480469,724.14453 1.554687,-1.45312 c -1.167968,-1.7461 -0.878906,-2.01172 0.632813,-3.42579 l 8.640625,-8.0625 c 1.269531,-1.18359 1.992187,-1.47656 3.417968,-0.35546 l 1.761719,-1.64454 -7.871093,-8.43359 -1.757813,1.64063 c 1.175781,1.50781 0.910156,2.29296 -0.441406,3.55468 l -9.128907,8.51953 c -0.957031,-0.94531 -1.804687,-1.76562 -2.527343,-2.54296 C 45.347656,703.99609 45.757812,694.5 53.125,687.625 c 6.222656,-5.80859 13.363281,-5.95703 18.441406,-0.51172 3.25,3.48047 3.832032,7.22656 2.195313,8.75391 -0.410157,0.3789 -1.054688,0.67578 -1.898438,1.0039 l 0.34375,2.66407 10.253907,0.3164 c -0.324219,-6.66797 -2.6875,-11.66015 -7.3125,-16.61719 -8.023438,-8.59765 -19.382813,-8.87109 -27.777344,-1.03906 -5.035156,4.69922 -7.511719,10.99219 -6.859375,17.35547 0.59375,5.72656 3.519531,10.42188 8.410156,15.66406 1.683594,1.80078 4.90625,4.76563 9.558594,8.92969"
         style="fill:#0f0c0c;fill-opacity:1;fill-rule:nonzero;stroke:none" />
      <path
         id="path3846"
         d="m 62.527344,728.59766 9.039062,8.12109 1.609375,-1.79297 c -1.304687,-1.39453 -1.109375,-2.19922 0.125,-3.57422 l 9.46875,-10.53906 8.25,7.40625 c 1.832031,1.64844 2.316407,2.53516 1.105469,4.38281 l 1.667969,1.4961 6.472661,-7.20704 -1.667974,-1.49609 c -2.0625,1.45703 -3.21875,0.57031 -5.554687,-1.52734 l -7.207031,-6.47266 6.960937,-7.75 11.167965,10.02734 c 2.16407,1.94532 3.12891,2.88672 1.84375,5.57422 l 1.79297,1.60938 5.16407,-5.75 -24.082036,-21.62891 -1.609375,1.79297 c 1.304687,1.39453 1.109375,2.19922 -0.125,3.57422 l -19.273438,21.45312 c -1.234375,1.375 -2.011719,1.65625 -3.539062,0.51172 l -1.609375,1.78907"
         style="fill:#0f0c0c;fill-opacity:1;fill-rule:nonzero;stroke:none" />
      <path
         id="path3848"
         d="m 126.77734,733.77344 c 6.58985,4.14062 7.69141,11.44531 2.44922,19.78906 -5.0625,8.0625 -12.45703,10.36328 -19.0039,6.25391 -6.02344,-3.78516 -7.625,-11.86329 -2.67969,-19.73829 5.03125,-8.01562 12.83203,-10.32421 19.23437,-6.30468 m -26.17187,2.08203 c -6.222658,9.91015 -4.000001,21.42578 6.8125,28.21484 10.85937,6.82031 22.40234,3.82031 28.77344,-6.32812 6.04687,-9.62891 3.8125,-21.54688 -6.71875,-28.16016 -10.4336,-6.55078 -22.55469,-3.78125 -28.86719,6.27344"
         style="fill:#0f0c0c;fill-opacity:1;fill-rule:nonzero;stroke:none" />
      <path
         id="path3850"
         d="m 151.48828,758.35156 4.63672,-11.89844 6.10547,2.37891 c 4.90234,1.91016 6.54687,5.25391 5.16406,8.80078 -2.15625,5.53125 -6.09375,4.53906 -12.09766,2.19922 l -3.80859,-1.48047 m -17.10156,16.59375 11.375,4.4336 0.875,-2.2461 c -1.95313,-1 -1.57813,-2.11719 -0.625,-4.57031 l 3.86328,-9.91406 5.21875,2.03515 2.92969,19.46875 8.71484,3.39453 0.79297,-2.03125 c -1.37891,-0.78125 -1.94141,-1.96093 -2.26953,-3.89453 l -2.58203,-15.125 c 5.32422,0.99219 9.85156,-1.6914 11.76562,-6.59765 2.23438,-5.73828 -0.4375,-11.52735 -8.78906,-14.78125 l -17.0625,-6.64453 -0.87109,2.24218 c 1.71093,0.84766 1.8125,1.66797 1.14062,3.39063 l -10.46875,26.875 c -0.66797,1.72265 -1.29687,2.25781 -3.13281,1.72265 l -0.875,2.24219"
         style="fill:#0f0c0c;fill-opacity:1;fill-rule:nonzero;stroke:none" />
      <path
         id="path3852"
         d="m 9.386719,598.62891 c -6.648438,5.05078 -8.945313,10.46093 -7.820313,18.55859 1.476563,10.59375 7.953125,15.68359 15.21875,14.67187 6.488282,-0.90234 9.324219,-5.70703 10.300782,-14.55078 0.773437,-7.0039 0.371093,-11.52734 4.367187,-12.08593 2.828125,-0.39454 5.203125,2.04687 5.851563,6.70703 0.710937,5.10156 -1.1875,8.92968 -3.851563,9.29687 -0.554687,0.0781 -1.078125,-0.0195 -1.78125,-0.20312 l -1.265625,1.87109 6.632812,5.41016 c 4.5625,-4.59375 6.222657,-10.14063 5.226563,-17.29297 -1.230469,-8.82031 -6.898437,-13.79688 -12.941406,-12.95703 -6.160157,0.85937 -8.3125,5.28515 -9.28125,12.9414 -0.5625,4.48828 -0.566407,7.71094 -1.214844,9.55469 -0.863281,2.32422 -2.261719,3.65234 -4.371094,3.94531 -3.660156,0.50782 -6.683593,-2.51953 -7.476562,-8.23437 -0.757813,-5.4336 1.417969,-8.90235 4.46875,-9.32813 1.050781,-0.14843 1.945312,0.1836 2.996093,0.82813 l 1.550782,-1.85547 -6.609375,-7.27734"
         style="fill:#0f0c0c;fill-opacity:1;fill-rule:nonzero;stroke:none" />
      <path
         id="path3854"
         d="m 235.39844,754.76172 c 1.39062,-0.17969 2.02734,-0.14453 2.14453,0.40234 0.26953,1.26172 -0.80469,3.20703 -1.67578,6.65625 -1.21485,4.78125 -1.87891,8.92969 -0.89063,13.58594 1.41016,6.62891 4.89063,10.86719 10.4375,12.72266 4.19141,1.39843 8.35156,0.51562 13.39063,-0.5586 l 15.17578,-3.22656 -0.50391,-2.35547 c -2.125,0.22266 -2.53515,-0.89062 -3.1289,-3.68359 l -5.71094,-26.83985 c -0.34766,-1.64453 0.24219,-2.6289 1.69922,-3.05468 l -0.5,-2.35547 -11.88672,2.53125 0.5,2.35547 c 1.89844,-0.23438 2.3789,0.41015 2.76172,2.21484 l 5.96484,28.04687 -3.88672,0.82813 c -4.38281,0.92969 -7.57031,1.55078 -10.5,0.17187 -3.36719,-1.57421 -5.72656,-4.85156 -6.75,-9.67187 -0.8164,-3.83594 -0.69922,-7.86719 0.32422,-12.20703 0.83203,-3.61328 1.83594,-6.17188 4.35938,-8.02735 l -0.44141,-2.08203 -11.33984,2.41407 0.45703,2.13281"
         style="fill:#0f0c0c;fill-opacity:1;fill-rule:nonzero;stroke:none" />
      <path
         id="path3856"
         d="m 280.60937,783.58203 9.66016,-3.57812 -0.83594,-2.26172 c -1.64453,0.55078 -2.35937,-0.082 -3.15625,-2.23438 l -9.04687,-24.41797 25.49219,11.57813 2.37109,6.41015 c 0.66406,1.78516 0.47656,2.57032 -1.21875,3.31641 l 0.83594,2.25781 9.24218,-3.42578 -0.83593,-2.25781 c -2,0.5625 -2.3125,-0.27734 -2.97266,-2.0625 l -9.94141,-26.83203 c -0.68359,-1.83985 -0.42968,-2.76953 1.125,-3.40625 l -0.8164,-2.20313 -9.1875,3.40235 0.8164,2.20703 c 1.73829,-0.46485 2.35157,-0.0977 2.9375,1.48047 l 4.25782,11.5 -21.71875,-10.10938 -10.34375,3.83203 0.8164,2.20703 c 1.3711,-0.32812 2.32032,-0.0234 2.59375,0.71094 l 10.38672,28.04297 c 0.73828,1.99609 0.64453,2.86719 -1.14062,3.52734 l -0.15625,0.0586 0.83593,2.25781"
         style="fill:#0f0c0c;fill-opacity:1;fill-rule:nonzero;stroke:none" />
      <path
         id="path3858"
         d="m 319.42187,768.48437 10.76954,-5.75 -1.13282,-2.125 c -1.5625,0.64454 -2.39843,0.26172 -3.21484,-1.26562 l -13.69141,-25.64063 c -0.8164,-1.53125 -0.66406,-2.4375 0.73828,-3.375 l -1.13671,-2.125 -10.76954,5.75 1.13672,2.125 c 1.75782,-0.75 2.44532,-0.29296 3.31641,1.33594 l 13.58594,25.44141 c 0.86718,1.63281 0.86718,2.45703 -0.73438,3.5039 l 1.13281,2.125"
         style="fill:#0f0c0c;fill-opacity:1;fill-rule:nonzero;stroke:none" />
      <path
         id="path3860"
         d="M 353.99609,746.36328 343.25,712.42969 c -0.62891,-1.97657 -0.8125,-2.88282 0.35937,-4.3125 l -1.33593,-1.79688 -8.09375,6.00781 1.33203,1.79688 c 0.93359,-0.62109 1.79687,-0.49609 2.26172,0.13281 0.23437,0.31641 0.54687,0.92188 0.875,1.9336 l 7.89062,24.82421 -21.60156,-15.20703 c -0.76172,-0.55468 -1.25,-1.02734 -1.44922,-1.29687 -0.36719,-0.4961 -0.0625,-1.21094 0.89453,-1.98828 l -1.40234,-1.89063 -9.9375,7.375 1.43359,1.9336 c 1.14453,-0.71094 2.36719,-0.57032 3.84766,0.49218 l 29.46484,20.53516 6.20703,-4.60547"
         style="fill:#0f0c0c;fill-opacity:1;fill-rule:nonzero;stroke:none" />
      <path
         id="path3862"
         d="m 385.37891,709.4375 -9.14454,10.89453 -11.58203,-9.72266 7.49219,-8.92187 c 1.58203,-1.88672 2.46094,-2.32031 4.34766,-1.17578 l 1.4414,-1.71485 -7.42187,-6.22656 -1.44141,1.71485 c 1.52735,2.01171 0.67969,3.19921 -1.33594,5.60156 l -6.55468,7.80469 -7.58985,-6.3711 8.96485,-10.67969 c 1.87109,-2.23046 2.77734,-3.22656 5.5039,-2.03125 l 1.55078,-1.84375 -5.92187,-4.96875 -20.125,23.97657 1.84375,1.54687 c 1.35547,-1.34765 2.16406,-1.18359 3.57812,0.008 l 22.08985,18.53907 c 1.41406,1.1914 1.72265,1.95703 0.625,3.52343 l 1.84375,1.55079 21.0625,-25.09375 -6.26172,-5.25782 -1.69141,2.01563 c 1.84766,2.5039 1.03125,4.08594 -1.27343,6.83203"
         style="fill:#0f0c0c;fill-opacity:1;fill-rule:nonzero;stroke:none" />
      <path
         id="path3864"
         d="m 388.9375,675.53906 -11.14453,-6.22656 3.1914,-5.71875 c 2.57032,-4.59766 6.10547,-5.76563 9.42969,-3.90625 5.1836,2.89453 3.66016,6.66016 0.51953,12.28125 l -1.99609,3.57031 m 14.08984,19.22266 5.95313,-10.66016 -2.10156,-1.17187 c -1.26172,1.79687 -2.31641,1.26953 -4.61329,-0.0117 l -9.28906,-5.1875 2.73047,-4.89063 19.6875,-0.22656 4.5625,-8.16406 -1.90625,-1.06641 c -0.96094,1.25781 -2.20703,1.65235 -4.16797,1.71485 l -15.33594,0.47656 c 1.71094,-5.13672 -0.32031,-9.99219 -4.91796,-12.5586 -5.37891,-3.0039 -11.48047,-1.15234 -15.84766,6.67188 l -8.92969,15.98828 2.10156,1.17188 c 1.07422,-1.57813 1.90235,-1.56641 3.51563,-0.66407 l 25.17969,14.0586 c 1.61328,0.90234 2.05859,1.60156 1.27734,3.34375 l 2.10156,1.17578"
         style="fill:#0f0c0c;fill-opacity:1;fill-rule:nonzero;stroke:none" />
      <path
         id="path3866"
         d="m 414.44531,654.44922 c 8.21094,-1.5 12.71094,-5.28516 15.36328,-13.01953 3.47657,-10.11328 0,-17.58594 -6.9375,-19.96875 -6.19922,-2.125 -10.89843,0.8789 -15.76562,8.32422 -3.86328,5.89843 -5.54688,10.11718 -9.35938,8.80468 -2.70312,-0.92578 -3.71875,-4.17578 -2.1914,-8.625 1.67578,-4.87109 5.09765,-7.42968 7.64062,-6.55468 0.53125,0.18359 0.95313,0.5039 1.4961,0.98828 l 1.97656,-1.09766 -3.47266,-7.82422 c -6.14453,2.03516 -10.13281,6.23047 -12.47656,13.0625 -2.89453,8.42188 -0.0859,15.42578 5.68359,17.40625 5.87891,2.01953 9.80469,-0.95703 14.12891,-7.34375 2.53125,-3.75 3.99219,-6.625 5.40234,-7.97656 1.82032,-1.68359 3.66797,-2.23047 5.6836,-1.53906 3.49218,1.19922 4.82031,5.26562 2.94922,10.72265 -1.78516,5.1875 -5.29297,7.30078 -8.20704,6.30078 -1.0039,-0.34765 -1.65234,-1.04296 -2.30078,-2.09375 l -2.22265,0.95313 2.60937,9.48047"
         style="fill:#0f0c0c;fill-opacity:1;fill-rule:nonzero;stroke:none" />
      <path
         id="path3868"
         d="m 436.09375,617.10156 1.55859,-12.10937 -2.38672,-0.3086 c -0.38281,1.64453 -1.17578,2.10938 -2.89843,1.88672 l -28.82422,-3.71094 c -1.72266,-0.22265 -2.3711,-0.87109 -2.32422,-2.55859 l -2.38672,-0.30859 -1.5625,12.10937 2.39063,0.30469 c 0.41015,-1.86719 1.17968,-2.16016 3.01562,-1.92578 l 28.60156,3.68359 c 1.83203,0.23828 2.50391,0.71875 2.42969,2.62891 l 2.38672,0.30859"
         style="fill:#0f0c0c;fill-opacity:1;fill-rule:nonzero;stroke:none" />
      <g
         id="g3872"
         clip-rule="nonzero"
         clip-path="url(#clip3)">
        <path
           id="path3870"
           d="m 438.72266,587.55078 0.45703,-12.14062 -2.40625,-0.0937 c -0.17188,1.5625 -1.03516,2.20312 -2.82422,2.13671 l -28.98828,-1.09765 0.23828,-6.26953 c 0.0859,-2.35157 1.14062,-3.54297 3.27344,-3.62891 l 0.0898,-2.29687 -8.11719,-0.30469 -1.22265,32.28906 8.11328,0.30469 0.0898,-2.29297 c -2.17578,-0.25 -3.08203,-1.51953 -2.99219,-3.86719 l 0.23828,-6.26953 28.98438,1.09766 c 1.79297,0.0703 2.56641,0.3789 2.66016,2.34375 l 2.40625,0.0898"
           style="fill:#0f0c0c;fill-opacity:1;fill-rule:nonzero;stroke:none" />
      </g>
      <path
         id="path3874"
         d="m 429.26172,530.33984 2.3164,14.03125 -14.91796,2.46094 -1.89844,-11.49219 c -0.39844,-2.42968 -0.16016,-3.3789 1.9414,-4.0664 l -0.36328,-2.20703 -9.55859,1.57421 0.36328,2.21094 c 2.52344,0.15235 2.87109,1.57031 3.37891,4.66406 l 1.66015,10.05469 -9.78125,1.61328 -2.26953,-13.75781 c -0.47265,-2.87109 -0.63672,-4.20703 2.04688,-5.5 l -0.39453,-2.37891 -7.625,1.25782 5.09375,30.88672 2.3789,-0.39063 c -0.14453,-1.90625 0.50781,-2.41016 2.33203,-2.71094 l 28.45703,-4.69531 c 1.82422,-0.30078 2.60547,-0.0312 3.07813,1.82031 l 2.37891,-0.39062 L 432.54687,521 l -8.0664,1.32812 0.42969,2.59766 c 3.10156,0.22656 3.76953,1.87891 4.35156,5.41406"
         style="fill:#0f0c0c;fill-opacity:1;fill-rule:nonzero;stroke:none" />
      <path
         id="path3876"
         d="m 424.84375,501.05859 -4.71875,-11.19922 -2.21875,0.9375 c 0.50781,1.48829 -0.008,2.4336 -1.66016,3.12891 l -26.73437,11.25391 -2.4336,-5.77735 c -0.91406,-2.16797 -0.46093,-3.69531 1.4336,-4.67578 l -0.89063,-2.11719 -7.48437,3.15235 12.53906,29.77734 7.48438,-3.14844 -0.89063,-2.11718 c -2.07812,0.6914 -3.43359,-0.0742 -4.34766,-2.24219 l -2.43359,-5.77734 26.73438,-11.25782 c 1.65234,-0.69531 2.48437,-0.74218 3.39843,0.9961 l 2.22266,-0.9336"
         style="fill:#0f0c0c;fill-opacity:1;fill-rule:nonzero;stroke:none" />
    </g>
    <text
       xml:space="preserve"
       style="font-size:10.2306px;line-height:1.25;font-family:'Times New Roman';-inkscape-font-specification:'Times New Roman, ';stroke-width:0.143525"
       x="31.425766"
       y="-133.89247"
       id="text591"
       transform="rotate(90)"><tspan
         sodipodi:role="line"
         id="tspan589"
         x="31.425766"
         y="-133.89247"
         style="font-style:normal;font-variant:normal;font-weight:bold;font-stretch:normal;font-size:10.2306px;font-family:'Times New Roman';-inkscape-font-specification:'Times New Roman, Bold';stroke-width:0.143525">Spektrum rf.    <tspan
   style="font-style:normal;font-variant:normal;font-weight:normal;font-stretch:normal;font-family:'Times New Roman';-inkscape-font-specification:'Times New Roman, '"
   id="tspan80">Sångbok</tspan></tspan></text>
    <path
       style="fill:#000000;stroke:none;stroke-width:0.00190652"
       inkscape:connector-curvature="0"
       d="m 135.60082,154.59813 c -0.39465,0.67873 -0.98759,1.69871 -1.31551,2.26685 l -0.59865,1.03144 -0.11439,0.0419 c -0.063,0.0208 -0.17348,0.0554 -0.24785,0.0744 -0.0725,0.019 -0.28407,0.0839 -0.46709,0.14298 -0.18302,0.061 -0.39273,0.12008 -0.46709,0.13537 -0.0725,0.0134 -0.19257,0.0477 -0.26692,0.0762 -0.0725,0.0286 -0.17159,0.0573 -0.21925,0.0649 -0.0838,0.0134 -0.25548,0.0666 -0.44804,0.13536 -0.0514,0.019 -0.14108,0.0459 -0.19637,0.0573 -0.0573,0.0135 -0.16015,0.0457 -0.22878,0.0706 -0.12775,0.0477 -0.16969,0.059 -0.36415,0.0992 -0.0573,0.0114 -0.10679,0.0248 -0.11059,0.0286 -0.0211,0.0209 -0.0114,0.2002 0.0114,0.23832 0.019,0.0306 0.0744,0.019 0.38322,-0.0725 0.11059,-0.0324 0.24784,-0.0725 0.30503,-0.0876 0.0573,-0.0171 0.13155,-0.0382 0.16206,-0.0495 0.0324,-0.0114 0.0915,-0.0306 0.13346,-0.0401 0.0419,-0.0114 0.11438,-0.0362 0.16204,-0.059 0.0477,-0.021 0.20592,-0.0706 0.35272,-0.10867 0.30504,-0.082 0.70923,-0.20019 1.00282,-0.29551 0.11249,-0.0362 0.24786,-0.0705 0.30315,-0.0781 0.0916,-0.0114 0.10106,-0.01 0.0896,0.0211 -0.0134,0.0306 -1.42609,2.36979 -1.55764,2.57381 -0.0343,0.0514 -0.15824,0.2631 -0.27645,0.46708 -0.24213,0.41753 -0.36225,0.61391 -0.48045,0.78741 -0.11628,0.17158 -0.14489,0.22497 -0.12578,0.24403 0.01,0.01 2.25925,0.0208 5.13428,0.0248 2.81594,0.003 5.15144,0.0134 5.19147,0.0208 0.0477,0.01 0.0706,0.006 0.0706,-0.008 0,-0.0324 -0.28599,-0.5586 -0.33365,-0.61198 -0.0477,-0.0553 -0.18684,-0.30886 -0.65776,-1.20112 -0.33936,-0.6425 -0.91512,-1.68155 -0.9628,-1.73495 -0.0438,-0.0514 -0.16777,-0.30503 -0.15442,-0.31838 0.006,-0.008 0.16397,0.0533 0.3508,0.13346 0.32792,0.13917 2.12006,0.86746 2.17726,0.88463 0.019,0.006 0.0459,-0.0247 0.0801,-0.0954 l 0.0514,-0.10492 -0.0896,-0.0382 c -0.0495,-0.0208 -0.3813,-0.16015 -0.73782,-0.30888 -0.35653,-0.14869 -0.75498,-0.32029 -0.88653,-0.38129 -0.27836,-0.12964 -1.19731,-0.53382 -1.21637,-0.53382 -0.0171,0 -0.21354,-0.35081 -0.21354,-0.37941 0,-0.0343 0.16016,-0.0248 1.52903,0.0933 0.7245,0.063 1.32123,0.11059 1.32696,0.10679 0.0114,-0.0134 0.0629,-0.26309 0.0553,-0.27071 -0.003,-0.003 -0.30695,-0.0286 -0.673,-0.0533 -0.93991,-0.0666 -1.09625,-0.0801 -1.67585,-0.13346 -0.28215,-0.0267 -0.56622,-0.0495 -0.62914,-0.0495 -0.12773,0 -0.11628,0.0134 -0.25739,-0.25738 -0.0343,-0.063 -0.0801,-0.13537 -0.10293,-0.16205 -0.0248,-0.0267 -0.18685,-0.31457 -0.36416,-0.6387 -0.54335,-1.00473 -0.56624,-1.04668 -0.61008,-1.09626 -0.0228,-0.0267 -0.0934,-0.14298 -0.15634,-0.25736 -0.063,-0.11628 -0.23641,-0.42516 -0.38703,-0.68635 -0.1506,-0.2631 -0.32601,-0.5796 -0.39083,-0.70542 -0.0629,-0.12578 -0.12774,-0.23069 -0.143,-0.23259 -0.019,-0.003 -0.26881,0.40608 -0.74543,1.22971 z m 0.74924,-0.71685 c 0.0172,0.0134 0.11819,0.18301 0.2269,0.37748 0.10679,0.19447 0.23831,0.42897 0.29359,0.5243 0.0554,0.0933 0.14872,0.26119 0.21164,0.37178 0.061,0.11058 0.12964,0.22496 0.15252,0.25737 0.0228,0.0306 0.0686,0.11249 0.10304,0.17922 0.0324,0.0666 0.25165,0.45946 0.48616,0.87128 0.40228,0.70351 0.5243,0.92657 0.5243,0.95135 0,0.006 -0.04,0.01 -0.0897,0.01 -0.0514,0 -1.0181,0.0954 -2.15056,0.20971 -1.13248,0.1163 -2.06478,0.20972 -2.0724,0.20972 -0.0401,0 0.32602,-0.66156 1.03715,-1.87793 0.42897,-0.73401 0.80455,-1.36888 0.83315,-1.41081 0.0285,-0.0419 0.12578,-0.21545 0.21353,-0.38514 0.0877,-0.17157 0.16969,-0.31075 0.18113,-0.31075 0.01,0 0.0324,0.0114 0.0495,0.0228 z m 2.23827,3.93125 c 0.0649,0.0857 0.13538,0.19256 0.15825,0.23641 l 0.0401,0.0762 -0.059,0.0134 c -0.0649,0.0152 -0.4099,0.003 -1.15154,-0.0382 -0.27263,-0.0152 -0.64631,-0.0362 -0.82934,-0.0477 -0.18302,-0.01 -0.60818,-0.0248 -0.94372,-0.0324 -0.33556,-0.008 -0.59295,-0.0172 -0.57197,-0.0208 0.0934,-0.023 3.00659,-0.34318 3.11716,-0.34318 l 0.12388,-0.001 z m -3.85309,0.38321 c 0.35653,0.0152 0.78169,0.0382 0.94373,0.0477 0.69589,0.0438 1.43563,0.0838 1.63009,0.0896 0.11628,0.003 0.51667,0.019 0.89417,0.0343 0.63105,0.0267 0.68825,0.0324 0.73782,0.0686 0.0306,0.021 0.0554,0.0572 0.0554,0.0801 0,0.0208 0.0152,0.0573 0.0343,0.0781 0.0211,0.023 0.15824,0.25357 0.30886,0.51667 0.15062,0.26119 0.30887,0.53574 0.35272,0.61009 0.0438,0.0725 0.24022,0.44613 0.4385,0.82934 0.19637,0.38321 0.37176,0.71113 0.38893,0.7302 0.0362,0.0438 0.15442,0.25737 0.3241,0.5872 l 0.13345,0.2612 -1.88174,0.0134 c -2.93032,0.0228 -7.61084,-0.01 -7.61084,-0.0535 0,-0.0114 0.0725,-0.13535 0.16013,-0.27836 0.0877,-0.14298 0.59866,-1.01044 1.13629,-1.92749 0.53765,-0.91704 0.99142,-1.68155 1.01048,-1.69681 0.0362,-0.0343 -0.019,-0.0343 0.94373,0.01 z"
       id="path3835" />
  </g>
</svg>
