<?xml version="1.0" encoding="UTF-8" standalone="no"?>
<svg
   xmlns:dc="http://purl.org/dc/elements/1.1/"
   xmlns:cc="http://creativecommons.org/ns#"
   xmlns:rdf="http://www.w3.org/1999/02/22-rdf-syntax-ns#"
   xmlns:svg="http://www.w3.org/2000/svg"
   xmlns="http://www.w3.org/2000/svg"
   xmlns:sodipodi="http://sodipodi.sourceforge.net/DTD/sodipodi-0.dtd"
   xmlns:inkscape="http://www.inkscape.org/namespaces/inkscape"
   version="1.0"
   width="1079.000000pt"
   height="964.000000pt"
   viewBox="0 0 1079.000000 964.000000"
   preserveAspectRatio="xMidYMid meet"
   id="svg3883"
   sodipodi:docname="logo-small-black.svg"
   inkscape:export-filename="/home/hdaniel/Pictures/logos/logo-mid.png"
   inkscape:export-xdpi="96"
   inkscape:export-ydpi="96"
   inkscape:version="0.92.5 (2060ec1f9f, 2020-04-08)">
  <metadata
     id="metadata3889">
    <rdf:RDF>
      <cc:Work
         rdf:about="">
        <dc:format>image/svg+xml</dc:format>
        <dc:type
           rdf:resource="http://purl.org/dc/dcmitype/StillImage" />
        <dc:title></dc:title>
      </cc:Work>
    </rdf:RDF>
  </metadata>
  <defs
     id="defs3887" />
  <sodipodi:namedview
     pagecolor="#ffffff"
     bordercolor="#666666"
     borderopacity="1"
     objecttolerance="10"
     gridtolerance="10"
     guidetolerance="10"
     inkscape:pageopacity="0"
     inkscape:pageshadow="2"
     inkscape:window-width="1920"
     inkscape:window-height="1027"
     id="namedview3885"
     showgrid="false"
     inkscape:zoom="0.64885892"
     inkscape:cx="445.0056"
     inkscape:cy="642.66667"
     inkscape:window-x="0"
     inkscape:window-y="27"
     inkscape:window-maximized="1"
     inkscape:current-layer="g3881" />
  <g
     transform="translate(0.000000,964.000000) scale(0.100000,-0.100000)"
     fill="#000000"
     stroke="none"
     id="g3881">
    <path
       style="stroke-width:74.99999987;stroke-miterlimit:4;stroke-dasharray:none"
       inkscape:connector-curvature="0"
       d="m 5146.4596,6917.2618 c -207,-356 -517.9999,-891 -690,-1189 l -313.9999,-540.9999 -60,-22.0001 c -33,-10.9999 -91,-28.9999 -130,-39 -38,-10 -149,-43.9999 -245,-74.9999 -96,-32 -206.0001,-63 -245,-71 -38,-7 -101,-25 -140,-40 -38,-15 -90,-30 -115,-34.0001 -44,-6.9999 -134,-34.9999 -235,-70.9999 -27,-10.0001 -74,-24 -103,-30 -30,-7.0001 -84,-24 -120,-37.0001 -67,-24.9999 -89,-30.9999 -191,-51.9999 -30,-6 -56,-13 -58,-15 -11,-11.0001 -6,-105 6,-125.0001 10,-15.9999 39,-9.9999 201,38.0001 58,17 130,38 160,45.9999 30,9 69,20.0001 85,26.0001 17,6 48,15.9999 70,21 22,6 60,18.9999 85,30.9999 25,11.0001 108,37.0001 185,57 160,43.0001 372,105 526,155.0001 59,18.9999 129.9999,36.9999 159,41 48,6 53,4.9999 47,-11 -7.0001,-16 -748,-1243 -817,-1350 -18,-27 -83,-138 -145,-245 -127,-219 -190,-322 -252,-413 -61,-90 -76,-118 -66,-128 5,-5 1185,-11 2692.9999,-13 1477,-2 2702,-7 2723,-11 24.9999,-5 36.9999,-3 36.9999,4 0,17 -150,293 -174.9999,321 -25,29 -98.0001,162 -345,630 -178,337 -480,881.9999 -505,910 -23,27 -88,160 -81,166.9999 3,4.0001 86,-27.9999 184,-69.9999 172,-73 1112,-455.0001 1142,-464.0001 10,-3 24,13.0001 41.9999,50.0001 l 27,54.9999 -46.9999,20.0001 c -26.0001,11 -200.0001,84 -387,162 -187,78 -396,168 -465,200 -146,67.9999 -628,280 -638,280 -9,0 -112,183.9999 -112,198.9999 0,18 84,13 801.9999,-48.9999 380.0001,-33 693,-58.0001 696,-56.0001 6,7 33,138 29.0001,142 -2.0001,2 -161.0001,15 -353.0001,28.0001 -492.9999,34.9999 -574.9999,42 -878.9999,69.9999 -148,14.0001 -297,26.0001 -330,26.0001 -67,0 -61,-7.0001 -135,135 -18,33 -42,70.9999 -54,84.9999 -13,14.0001 -98,165 -191,335.0001 -285,526.9999 -297,548.9999 -320,574.9999 -12,14 -49,75 -82,135 -33,61 -124,223 -203,360 -79,138 -171,304 -205,370 -33,66 -67,121 -75,122 -10,2 -140.9999,-213 -391,-645 z m 393,376 c 9,-7 62,-96 119,-198 56,-102 125,-225 154,-275 29,-49 78,-137 111,-195 32,-58 68,-118 80,-135 12,-16 36,-59 54,-94 17,-35 132,-241 255,-457 211,-369 275,-486 275,-499 0,-3 -21,-5 -47,-5 -27,0 -534,-49.9999 -1128,-109.9999 -594,-61.0001 -1083,-110.0001 -1086.9999,-110.0001 -21,0 171,347.0001 543.9999,985 225,385 422.0001,718 437.0001,740 15,22 66,113 111.9999,202 46,90 89,163 95,163 5,0 17,-6 26,-12 z m 1174,-2062 c 34,-45 71,-100.9999 83,-124 l 21,-39.9999 -31,-7 c -34,-8 -215,-2 -604,19.9999 -143,8.0001 -339,19 -435,25 -96,5 -319,13.0001 -494.9999,17 -176.0001,4 -311.0001,9 -300,11.0001 48.9999,12 1576.9999,180 1634.9999,180 l 65,0.9999 z m -2021,-200.9999 c 187,-8 410.0001,-20 495,-25.0001 365,-22.9999 753,-43.9999 855,-46.9999 61,-2 271,-10.0001 469,-18 331,-14 361,-17 387,-36 16,-11 29,-30 29,-42 0,-11 8,-30 18,-41 11,-12 83,-133 162,-271 79,-137 162,-281 185,-320 23,-38.0001 126,-234 229.9999,-435 103.0001,-201 195,-373 204,-383 19.0001,-23 81,-135 170.0001,-308 l 69.9999,-137 -986.9999,-7 c -1537,-12 -3991.9999,5 -3991.9999,28 0,6 38,71 84,146 46,75 314,530 596,1011 282,481 520,882 529.9999,889.9999 19.0001,18 -9.9999,18 495,-4.9999 z"
       id="path3835" />
    <path
       style="fill:none;stroke:#000000;stroke-width:0;stroke-linecap:butt;stroke-linejoin:miter;stroke-opacity:1;stroke-miterlimit:4;stroke-dasharray:none"
       d="M 1537.3142,7859.952 1363.9328,5929.6403"
       id="path4789"
       inkscape:connector-curvature="0" />
    <path
       style="fill:none;stroke:#000000;stroke-width:374.99999937;stroke-linecap:butt;stroke-linejoin:miter;stroke-opacity:1;stroke-miterlimit:4;stroke-dasharray:none"
       d="M 5513.5252,7420.7194 2855.012,2901.247 l 5236.1148,11.5588 z"
       id="path4793"
       inkscape:connector-curvature="0" />
    <path
       style="fill:none;stroke:#000000;stroke-width:7.5px;stroke-linecap:butt;stroke-linejoin:miter;stroke-opacity:1"
       d="m 2485.1319,4646.6187 1548.8729,427.6739 2618.4548,239.9692 1682.9999,-135"
       id="path4797"
       inkscape:connector-curvature="0" />
    <path
       style="fill:none;stroke:#000000;stroke-width:374.99999937;stroke-linecap:butt;stroke-linejoin:miter;stroke-opacity:1;stroke-miterlimit:4;stroke-dasharray:none"
       d="M 8414.772,4218.9449 6923.693,4866.235 4197.4596,5035.2618 2473.5731,4507.9136"
       id="path4813"
       inkscape:connector-curvature="0" />
    <path
       style="fill:none;stroke:#000000;stroke-width:374.99999937;stroke-linecap:butt;stroke-linejoin:miter;stroke-opacity:1;stroke-miterlimit:4;stroke-dasharray:none"
       d="m 4197.4596,5035.2618 2575.9696,397.3521 1606.6666,-92.47"
       id="path4819"
       inkscape:connector-curvature="0" />
  </g>
</svg>
