<?xml version="1.0" encoding="UTF-8" standalone="no"?>
<svg
   xmlns:dc="http://purl.org/dc/elements/1.1/"
   xmlns:cc="http://creativecommons.org/ns#"
   xmlns:rdf="http://www.w3.org/1999/02/22-rdf-syntax-ns#"
   xmlns:svg="http://www.w3.org/2000/svg"
   xmlns="http://www.w3.org/2000/svg"
   id="svg3879"
   version="1.1"
   viewBox="0 0 612 792"
   height="792pt"
   width="612pt">
  <metadata
     id="metadata3883">
    <rdf:RDF>
      <cc:Work
         rdf:about="">
        <dc:format>image/svg+xml</dc:format>
        <dc:type
           rdf:resource="http://purl.org/dc/dcmitype/StillImage" />
        <dc:title></dc:title>
      </cc:Work>
    </rdf:RDF>
  </metadata>
  <defs
     id="defs3808">
    <clipPath
       id="clip1">
      <path
         id="path3799"
         d="M 160 359.515625 L 206 359.515625 L 206 406 L 160 406 Z M 160 359.515625 " />
    </clipPath>
    <clipPath
       id="clip2">
      <path
         id="path3802"
         d="M 218 359.515625 L 252 359.515625 L 252 400 L 218 400 Z M 218 359.515625 " />
    </clipPath>
    <clipPath
       id="clip3">
      <path
         id="path3805"
         d="M 399 563 L 439.179688 563 L 439.179688 597 L 399 597 Z M 399 563 " />
    </clipPath>
  </defs>
  <g
     id="surface1">
    <path
       id="path3810"
       d="M 156.710938 548.941406 C 172.472656 548.511719 289.773438 554.503906 289.773438 554.503906 L 342.929688 651.878906 L 94.398438 651.566406 C 94.164062 651.566406 154.253906 549.894531 154.960938 549.128906 C 155.046875 549.039062 155.660156 548.972656 156.710938 548.941406 Z M 278.054688 535.753906 C 285.203125 546.800781 280.152344 538.636719 284.960938 546.910156 C 275.980469 546.546875 193.898438 543.660156 193.898438 543.660156 Z M 221.648438 435.566406 C 222.339844 435.84375 274.277344 528.4375 273.835938 528.691406 C 273.398438 528.945312 161.398438 539.800781 161.398438 539.503906 C 161.398438 537.8125 220.863281 435.253906 221.648438 435.566406 Z M 222.054688 422.503906 C 221.660156 422.503906 158.132812 533.140625 152.804688 540.691406 C 137.480469 545.566406 76.324219 564.144531 74.398438 564.535156 C 70.265625 565.378906 69.5625 566.269531 70.210938 569.660156 C 70.5 571.167969 70.835938 571.902344 72.773438 571.753906 C 74.710938 571.609375 147.117188 548.855469 147.117188 549.878906 C 147.117188 550.140625 82.398438 657.453125 82.398438 658.003906 C 82.398438 658.671875 355.054688 658.394531 355.054688 658.160156 C 355.054688 657.585938 303.605469 568.578125 297.992188 556.128906 C 298.601562 555.835938 353.605469 579.675781 365.992188 584.660156 C 367.015625 585.074219 369.914062 580.175781 369.117188 579.378906 C 368.910156 579.171875 297.199219 548.828125 294.429688 547.191406 C 293.085938 544.988281 292.394531 543.832031 291.554688 542.472656 C 290.847656 541.1875 289.714844 539.183594 287.992188 536.160156 C 288.765625 536.015625 361.132812 541.800781 361.742188 541.410156 C 362.355469 541.023438 363.417969 534.671875 363.242188 534.503906 C 363.070312 534.339844 282.367188 527.753906 282.367188 527.753906 L 222.054688 422.503906 "
       style=" stroke:none;fill-rule:nonzero;fill:rgb(6.266785%,5.734253%,5.047607%);fill-opacity:1;" />
    <path
       id="path3812"
       d="M 92.554688 425.855469 L 81.0625 411.167969 L 84.503906 408.476562 C 89.269531 404.75 92.871094 403.996094 96.183594 408.230469 C 99.425781 412.375 97.882812 417.492188 92.554688 425.855469 M 94.578125 444.535156 L 104.195312 437.011719 L 102.710938 435.117188 C 101.152344 436.121094 100.257812 435.613281 98.945312 433.9375 L 95.597656 429.660156 C 104.65625 417.882812 107.226562 410.257812 101.773438 403.289062 C 99.394531 400.242188 95.988281 398.710938 92.277344 399.054688 C 89.011719 399.335938 86.5625 401.109375 83.5625 403.457031 L 70.460938 413.703125 L 71.945312 415.601562 C 73.546875 414.558594 74.304688 414.890625 75.445312 416.347656 L 93.214844 439.0625 C 94.351562 440.519531 94.492188 441.332031 93.09375 442.636719 L 94.578125 444.535156 "
       style=" stroke:none;fill-rule:nonzero;fill:rgb(6.266785%,5.734253%,5.047607%);fill-opacity:1;" />
    <path
       id="path3814"
       d="M 146.914062 406.515625 L 133.648438 411.652344 L 128.1875 397.550781 L 139.050781 393.34375 C 141.347656 392.453125 142.324219 392.496094 143.425781 394.410156 L 145.515625 393.601562 L 142.015625 384.570312 L 139.929688 385.378906 C 140.296875 387.878906 138.976562 388.507812 136.054688 389.640625 L 126.550781 393.320312 L 122.96875 384.078125 L 135.972656 379.042969 C 138.6875 377.992188 139.960938 377.558594 141.777344 379.917969 L 144.023438 379.046875 L 141.230469 371.839844 L 112.039062 383.148438 L 112.910156 385.394531 C 114.746094 384.863281 115.375 385.398438 116.042969 387.121094 L 126.457031 414.015625 C 127.125 415.738281 127.023438 416.558594 125.308594 417.402344 L 126.179688 419.648438 L 156.726562 407.816406 L 153.773438 400.191406 L 151.320312 401.144531 C 151.730469 404.226562 150.253906 405.21875 146.914062 406.515625 "
       style=" stroke:none;fill-rule:nonzero;fill:rgb(6.266785%,5.734253%,5.047607%);fill-opacity:1;" />
    <g
       id="g3818"
       clip-rule="nonzero"
       clip-path="url(#clip1)">
      <path
         id="path3816"
         d="M 174.855469 388.410156 L 179.214844 381.703125 L 192.96875 395.277344 C 193.324219 395.601562 193.613281 395.882812 193.703125 396.324219 C 193.820312 396.871094 193.398438 397.304688 192.519531 397.488281 C 192.355469 397.523438 192.136719 397.570312 191.90625 397.5625 L 192.40625 399.917969 L 205.0625 397.234375 L 204.5625 394.878906 C 203.277344 395.039062 202.480469 394.234375 201.257812 393.0625 L 183.375 375.671875 L 190.25 365.171875 C 191.472656 363.367188 192.789062 362.285156 194.652344 361.890625 L 194.152344 359.535156 L 180.292969 362.472656 L 180.789062 364.828125 C 181 364.726562 181.21875 364.679688 181.382812 364.644531 C 182.3125 364.449219 182.953125 364.769531 183.082031 365.371094 C 183.1875 365.867188 182.9375 366.320312 182.59375 366.851562 L 173.367188 381.113281 L 170.929688 369.609375 C 170.566406 367.910156 170.910156 367.09375 172.519531 366.582031 L 172.019531 364.226562 L 160.242188 366.722656 L 160.738281 369.078125 C 162.636719 368.847656 163.171875 369.476562 163.554688 371.285156 L 169.535156 399.496094 C 169.917969 401.308594 169.683594 402.101562 167.855469 402.660156 L 168.355469 405.015625 L 180.078125 402.53125 L 179.582031 400.175781 C 177.902344 400.359375 177.257812 399.75 176.898438 398.054688 L 174.855469 388.410156 "
         style=" stroke:none;fill-rule:nonzero;fill:rgb(6.266785%,5.734253%,5.047607%);fill-opacity:1;" />
    </g>
    <g
       id="g3822"
       clip-rule="nonzero"
       clip-path="url(#clip2)">
      <path
         id="path3820"
         d="M 227.195312 399.144531 L 239.332031 399.800781 L 239.460938 397.394531 C 237.898438 397.199219 237.273438 396.324219 237.371094 394.535156 L 238.933594 365.566406 L 245.195312 365.90625 C 247.542969 366.03125 248.722656 367.105469 248.773438 369.238281 L 251.066406 369.363281 L 251.503906 361.253906 L 219.238281 359.515625 L 218.800781 367.621094 L 221.09375 367.746094 C 221.378906 365.574219 222.660156 364.691406 225.007812 364.816406 L 231.273438 365.152344 L 229.710938 394.121094 C 229.613281 395.910156 229.292969 396.679688 227.324219 396.738281 L 227.195312 399.144531 "
         style=" stroke:none;fill-rule:nonzero;fill:rgb(6.266785%,5.734253%,5.047607%);fill-opacity:1;" />
    </g>
    <path
       id="path3824"
       d="M 273.742188 386.039062 L 277.464844 373.824219 L 283.730469 375.734375 C 288.765625 377.269531 290.65625 380.480469 289.546875 384.121094 C 287.816406 389.800781 283.8125 389.105469 277.652344 387.230469 L 273.742188 386.039062 M 257.945312 403.878906 L 269.621094 407.4375 L 270.324219 405.136719 C 268.300781 404.285156 268.589844 403.144531 269.355469 400.625 L 272.457031 390.445312 L 277.8125 392.078125 L 282.210938 411.273438 L 291.15625 414 L 291.792969 411.910156 C 290.359375 411.238281 289.707031 410.105469 289.234375 408.203125 L 285.515625 393.3125 C 290.898438 393.902344 295.214844 390.882812 296.75 385.847656 C 298.542969 379.953125 295.441406 374.386719 286.871094 371.773438 L 269.351562 366.4375 L 268.652344 368.738281 C 270.425781 369.453125 270.585938 370.265625 270.046875 372.035156 L 261.640625 399.621094 C 261.101562 401.390625 260.515625 401.972656 258.644531 401.578125 L 257.945312 403.878906 "
       style=" stroke:none;fill-rule:nonzero;fill:rgb(6.266785%,5.734253%,5.047607%);fill-opacity:1;" />
    <path
       id="path3826"
       d="M 320.070312 386.160156 C 321.179688 387.023438 321.601562 387.5 321.292969 387.96875 C 320.589844 389.046875 318.449219 389.652344 315.386719 391.464844 C 311.136719 393.964844 307.722656 396.414062 305.113281 400.394531 C 301.394531 406.0625 300.832031 411.515625 303.417969 416.761719 C 305.375 420.722656 308.933594 423.058594 313.242188 425.882812 L 326.214844 434.390625 L 327.535156 432.375 C 325.878906 431.019531 326.382812 429.945312 327.949219 427.558594 L 342.996094 404.609375 C 343.917969 403.203125 345.03125 402.933594 346.359375 403.667969 L 347.679688 401.65625 L 337.515625 394.992188 L 336.195312 397.003906 C 337.695312 398.1875 337.578125 398.980469 336.566406 400.527344 L 320.84375 424.503906 L 317.519531 422.324219 C 313.773438 419.867188 311.085938 418.039062 310.007812 414.988281 C 308.753906 411.488281 309.421875 407.507812 312.125 403.386719 C 314.273438 400.105469 317.21875 397.351562 321.023438 395.023438 C 324.175781 393.074219 326.699219 391.980469 329.792969 392.472656 L 330.960938 390.691406 L 321.265625 384.335938 L 320.070312 386.160156 "
       style=" stroke:none;fill-rule:nonzero;fill:rgb(6.266785%,5.734253%,5.047607%);fill-opacity:1;" />
    <path
       id="path3828"
       d="M 335.882812 438.886719 L 342.488281 446.050781 L 344.257812 444.417969 C 343.511719 443.277344 343.539062 442.644531 344.320312 441.925781 C 344.855469 441.429688 345.386719 441.015625 345.875 440.71875 L 366.441406 427.089844 L 355.289062 446.96875 L 358.78125 450.757812 L 380.371094 442.203125 L 364.585938 462.007812 C 364.335938 462.316406 364.089844 462.542969 363.882812 462.734375 C 362.894531 463.644531 362.144531 463.574219 360.996094 462.578125 L 359.226562 464.207031 L 367.082031 472.730469 L 368.851562 471.101562 C 367.6875 469.585938 368.199219 468.65625 369.492188 467.082031 L 387.148438 445.171875 C 387.484375 444.710938 387.855469 444.371094 388.101562 444.140625 C 389.089844 443.230469 389.726562 443.175781 390.832031 444.214844 L 392.5625 442.617188 L 385.273438 434.714844 L 365.414062 442.664062 L 375.746094 424.378906 L 368.421875 416.433594 L 366.691406 418.027344 C 367.640625 419.054688 367.691406 419.769531 366.867188 420.53125 C 366.292969 421.0625 365.675781 421.550781 365.191406 421.847656 L 342.679688 436.429688 C 340.523438 437.808594 339.542969 438.558594 337.652344 437.253906 L 335.882812 438.886719 "
       style=" stroke:none;fill-rule:nonzero;fill:rgb(6.266785%,5.734253%,5.047607%);fill-opacity:1;" />
    <path
       id="path3830"
       d="M 57.84375 470.558594 C 66.074219 471.976562 71.597656 469.96875 76.753906 463.621094 C 83.496094 455.320312 82.804688 447.109375 77.109375 442.484375 C 72.023438 438.355469 66.574219 439.558594 59.441406 444.875 C 53.785156 449.085938 50.753906 452.464844 47.625 449.921875 C 45.40625 448.121094 45.570312 444.71875 48.535156 441.070312 C 51.785156 437.070312 55.878906 435.847656 57.964844 437.542969 C 58.398438 437.898438 58.683594 438.34375 59.03125 438.984375 L 61.261719 438.636719 L 60.695312 430.09375 C 54.226562 429.890625 49.039062 432.457031 44.484375 438.066406 C 38.871094 444.976562 39.09375 452.519531 43.832031 456.367188 C 48.65625 460.285156 53.363281 458.839844 59.625 454.332031 C 63.292969 451.683594 65.652344 449.484375 67.441406 448.703125 C 69.730469 447.75 71.65625 447.867188 73.308594 449.210938 C 76.175781 451.539062 76.023438 455.816406 72.386719 460.292969 C 68.925781 464.554688 64.90625 465.328125 62.515625 463.386719 C 61.691406 462.714844 61.320312 461.839844 61.074219 460.628906 L 58.660156 460.761719 L 57.84375 470.558594 "
       style=" stroke:none;fill-rule:nonzero;fill:rgb(6.266785%,5.734253%,5.047607%);fill-opacity:1;" />
    <path
       id="path3832"
       d="M 19.246094 488.089844 L 15.242188 499.625 L 17.515625 500.414062 C 18.207031 498.933594 19.097656 498.59375 20.738281 499.160156 L 34.226562 503.84375 L 28.257812 521.039062 L 14.875 516.390625 C 13.128906 515.785156 12.570312 515.175781 13.035156 513.320312 L 10.761719 512.53125 L 6.757812 524.066406 L 9.03125 524.855469 C 9.757812 523.269531 10.648438 523.105469 12.234375 523.65625 L 39.691406 533.1875 C 41.332031 533.757812 41.851562 534.472656 41.460938 536.113281 L 43.734375 536.902344 L 47.738281 525.371094 L 45.464844 524.582031 C 44.679688 526.324219 43.863281 526.457031 42.117188 525.851562 L 32.648438 522.5625 L 38.617188 505.367188 L 48.195312 508.695312 C 49.835938 509.261719 50.320312 510.082031 49.945312 511.671875 L 52.21875 512.460938 L 56.222656 500.929688 L 53.949219 500.140625 C 53.167969 501.882812 52.351562 502.015625 50.605469 501.410156 L 23.359375 491.949219 C 21.613281 491.34375 21.054688 490.734375 21.519531 488.882812 L 19.246094 488.089844 "
       style=" stroke:none;fill-rule:nonzero;fill:rgb(6.266785%,5.734253%,5.047607%);fill-opacity:1;" />
    <path
       id="path3834"
       d="M 6.074219 557.445312 L 7.484375 543.289062 L 22.527344 544.789062 L 21.375 556.378906 C 21.128906 558.832031 20.652344 559.683594 18.445312 559.804688 L 18.222656 562.03125 L 27.863281 562.992188 L 28.085938 560.761719 C 25.6875 559.960938 25.722656 558.503906 26.03125 555.382812 L 27.042969 545.238281 L 36.90625 546.222656 L 35.523438 560.097656 C 35.234375 562.992188 35.046875 564.328125 32.121094 564.878906 L 31.882812 567.273438 L 39.574219 568.039062 L 42.675781 536.890625 L 40.277344 536.652344 C 39.921875 538.53125 39.160156 538.847656 37.320312 538.664062 L 8.621094 535.808594 C 6.785156 535.625 6.097656 535.160156 6.121094 533.25 L 3.722656 533.011719 L 0.476562 565.609375 L 8.613281 566.421875 L 8.875 563.800781 C 5.9375 562.777344 5.71875 561.011719 6.074219 557.445312 "
       style=" stroke:none;fill-rule:nonzero;fill:rgb(6.266785%,5.734253%,5.047607%);fill-opacity:1;" />
    <path
       id="path3836"
       d="M 0.761719 568.222656 L 0 598.003906 L 8.84375 598.230469 L 8.914062 595.597656 C 5.074219 594.492188 4.882812 593.199219 4.980469 589.449219 L 5.265625 578.25 L 34.488281 578.996094 C 36.222656 579.042969 37.207031 579.964844 37.167969 581.53125 L 39.574219 581.59375 L 39.890625 569.222656 L 37.484375 569.160156 C 37.269531 571.058594 36.53125 571.429688 34.683594 571.382812 L 5.851562 570.648438 C 4.003906 570.601562 3.289062 570.191406 3.167969 568.28125 L 0.761719 568.222656 "
       style=" stroke:none;fill-rule:nonzero;fill:rgb(6.266785%,5.734253%,5.047607%);fill-opacity:1;" />
    <path
       id="path3838"
       d="M 172.621094 778.335938 C 175.34375 786.226562 179.761719 790.105469 187.804688 791.5625 C 198.328125 793.476562 205.191406 788.914062 206.5 781.699219 C 207.671875 775.25 203.996094 771.054688 195.898438 767.363281 C 189.488281 764.4375 185.0625 763.40625 185.785156 759.4375 C 186.296875 756.628906 189.355469 755.136719 193.984375 755.976562 C 199.054688 756.894531 202.09375 759.894531 201.613281 762.539062 C 201.515625 763.089844 201.257812 763.558594 200.863281 764.167969 L 202.246094 765.957031 L 209.457031 761.347656 C 206.519531 755.578125 201.769531 752.265625 194.664062 750.976562 C 185.902344 749.386719 179.402344 753.214844 178.3125 759.21875 C 177.199219 765.335938 180.734375 768.765625 187.699219 772.082031 C 191.789062 774.019531 194.851562 775.027344 196.398438 776.21875 C 198.335938 777.769531 199.15625 779.511719 198.777344 781.605469 C 198.117188 785.242188 194.296875 787.164062 188.621094 786.132812 C 183.222656 785.152344 180.605469 782.003906 181.15625 778.972656 C 181.347656 777.925781 181.9375 777.179688 182.878906 776.382812 L 181.601562 774.332031 L 172.621094 778.335938 "
       style=" stroke:none;fill-rule:nonzero;fill:rgb(6.266785%,5.734253%,5.047607%);fill-opacity:1;" />
    <path
       id="path3840"
       d="M 8.828125 637.765625 L 12.300781 649.46875 L 14.609375 648.78125 C 14.292969 647.125 14.832031 646.378906 16.496094 645.886719 L 44.359375 637.617188 C 46.023438 637.125 46.878906 637.453125 47.519531 639.015625 L 49.828125 638.332031 L 46.355469 626.628906 L 44.046875 627.3125 C 44.425781 629.1875 43.839844 629.769531 42.066406 630.296875 L 14.417969 638.5 C 12.648438 639.023438 11.839844 638.855469 11.136719 637.078125 L 8.828125 637.765625 "
       style=" stroke:none;fill-rule:nonzero;fill:rgb(6.266785%,5.734253%,5.047607%);fill-opacity:1;" />
    <path
       id="path3842"
       d="M 14.542969 655.492188 L 18.875 664.839844 L 21.058594 663.828125 C 20.378906 662.230469 20.953125 661.472656 23.035156 660.503906 L 46.664062 649.558594 L 37.136719 675.882812 L 30.9375 678.757812 C 29.207031 679.554688 28.410156 679.433594 27.53125 677.800781 L 25.347656 678.816406 L 29.488281 687.757812 L 31.675781 686.746094 C 30.957031 684.792969 31.769531 684.417969 33.496094 683.617188 L 59.460938 671.589844 C 61.238281 670.765625 62.1875 670.945312 62.945312 672.445312 L 65.078125 671.453125 L 60.957031 662.5625 L 58.824219 663.550781 C 59.425781 665.246094 59.105469 665.890625 57.582031 666.597656 L 46.453125 671.753906 L 54.816406 649.300781 L 50.175781 639.289062 L 48.042969 640.28125 C 48.480469 641.621094 48.25 642.589844 47.539062 642.921875 L 20.40625 655.492188 C 18.472656 656.386719 17.597656 656.359375 16.796875 654.632812 L 16.726562 654.480469 L 14.542969 655.492188 "
       style=" stroke:none;fill-rule:nonzero;fill:rgb(6.266785%,5.734253%,5.047607%);fill-opacity:1;" />
    <path
       id="path3844"
       d="M 58.480469 724.144531 L 60.035156 722.691406 C 58.867188 720.945312 59.15625 720.679688 60.667969 719.265625 L 69.308594 711.203125 C 70.578125 710.019531 71.300781 709.726562 72.726562 710.847656 L 74.488281 709.203125 L 66.617188 700.769531 L 64.859375 702.410156 C 66.035156 703.917969 65.769531 704.703125 64.417969 705.964844 L 55.289062 714.484375 C 54.332031 713.539062 53.484375 712.71875 52.761719 711.941406 C 45.347656 703.996094 45.757812 694.5 53.125 687.625 C 59.347656 681.816406 66.488281 681.667969 71.566406 687.113281 C 74.816406 690.59375 75.398438 694.339844 73.761719 695.867188 C 73.351562 696.246094 72.707031 696.542969 71.863281 696.871094 L 72.207031 699.535156 L 82.460938 699.851562 C 82.136719 693.183594 79.773438 688.191406 75.148438 683.234375 C 67.125 674.636719 55.765625 674.363281 47.371094 682.195312 C 42.335938 686.894531 39.859375 693.1875 40.511719 699.550781 C 41.105469 705.277344 44.03125 709.972656 48.921875 715.214844 C 50.605469 717.015625 53.828125 719.980469 58.480469 724.144531 "
       style=" stroke:none;fill-rule:nonzero;fill:rgb(6.266785%,5.734253%,5.047607%);fill-opacity:1;" />
    <path
       id="path3846"
       d="M 62.527344 728.597656 L 71.566406 736.71875 L 73.175781 734.925781 C 71.871094 733.53125 72.066406 732.726562 73.300781 731.351562 L 82.769531 720.8125 L 91.019531 728.21875 C 92.851562 729.867188 93.335938 730.753906 92.125 732.601562 L 93.792969 734.097656 L 100.265625 726.890625 L 98.597656 725.394531 C 96.535156 726.851562 95.378906 725.964844 93.042969 723.867188 L 85.835938 717.394531 L 92.796875 709.644531 L 103.964844 719.671875 C 106.128906 721.617188 107.09375 722.558594 105.808594 725.246094 L 107.601562 726.855469 L 112.765625 721.105469 L 88.683594 699.476562 L 87.074219 701.269531 C 88.378906 702.664062 88.183594 703.46875 86.949219 704.84375 L 67.675781 726.296875 C 66.441406 727.671875 65.664062 727.953125 64.136719 726.808594 L 62.527344 728.597656 "
       style=" stroke:none;fill-rule:nonzero;fill:rgb(6.266785%,5.734253%,5.047607%);fill-opacity:1;" />
    <path
       id="path3848"
       d="M 126.777344 733.773438 C 133.367188 737.914062 134.46875 745.21875 129.226562 753.5625 C 124.164062 761.625 116.769531 763.925781 110.222656 759.816406 C 104.199219 756.03125 102.597656 747.953125 107.542969 740.078125 C 112.574219 732.0625 120.375 729.753906 126.777344 733.773438 M 100.605469 735.855469 C 94.382812 745.765625 96.605469 757.28125 107.417969 764.070312 C 118.277344 770.890625 129.820312 767.890625 136.191406 757.742188 C 142.238281 748.113281 140.003906 736.195312 129.472656 729.582031 C 119.039062 723.03125 106.917969 725.800781 100.605469 735.855469 "
       style=" stroke:none;fill-rule:nonzero;fill:rgb(6.266785%,5.734253%,5.047607%);fill-opacity:1;" />
    <path
       id="path3850"
       d="M 151.488281 758.351562 L 156.125 746.453125 L 162.230469 748.832031 C 167.132812 750.742188 168.777344 754.085938 167.394531 757.632812 C 165.238281 763.164062 161.300781 762.171875 155.296875 759.832031 L 151.488281 758.351562 M 134.386719 774.945312 L 145.761719 779.378906 L 146.636719 777.132812 C 144.683594 776.132812 145.058594 775.015625 146.011719 772.5625 L 149.875 762.648438 L 155.09375 764.683594 L 158.023438 784.152344 L 166.738281 787.546875 L 167.53125 785.515625 C 166.152344 784.734375 165.589844 783.554688 165.261719 781.621094 L 162.679688 766.496094 C 168.003906 767.488281 172.53125 764.804688 174.445312 759.898438 C 176.679688 754.160156 174.007812 748.371094 165.65625 745.117188 L 148.59375 738.472656 L 147.722656 740.714844 C 149.433594 741.5625 149.535156 742.382812 148.863281 744.105469 L 138.394531 770.980469 C 137.726562 772.703125 137.097656 773.238281 135.261719 772.703125 L 134.386719 774.945312 "
       style=" stroke:none;fill-rule:nonzero;fill:rgb(6.266785%,5.734253%,5.047607%);fill-opacity:1;" />
    <path
       id="path3852"
       d="M 9.386719 598.628906 C 2.738281 603.679688 0.441406 609.089844 1.566406 617.1875 C 3.042969 627.78125 9.519531 632.871094 16.785156 631.859375 C 23.273438 630.957031 26.109375 626.152344 27.085938 617.308594 C 27.859375 610.304688 27.457031 605.78125 31.453125 605.222656 C 34.28125 604.828125 36.65625 607.269531 37.304688 611.929688 C 38.015625 617.03125 36.117188 620.859375 33.453125 621.226562 C 32.898438 621.304688 32.375 621.207031 31.671875 621.023438 L 30.40625 622.894531 L 37.039062 628.304688 C 41.601562 623.710938 43.261719 618.164062 42.265625 611.011719 C 41.035156 602.191406 35.367188 597.214844 29.324219 598.054688 C 23.164062 598.914062 21.011719 603.339844 20.042969 610.996094 C 19.480469 615.484375 19.476562 618.707031 18.828125 620.550781 C 17.964844 622.875 16.566406 624.203125 14.457031 624.496094 C 10.796875 625.003906 7.773438 621.976562 6.980469 616.261719 C 6.222656 610.828125 8.398438 607.359375 11.449219 606.933594 C 12.5 606.785156 13.394531 607.117188 14.445312 607.761719 L 15.996094 605.90625 L 9.386719 598.628906 "
       style=" stroke:none;fill-rule:nonzero;fill:rgb(6.266785%,5.734253%,5.047607%);fill-opacity:1;" />
    <path
       id="path3854"
       d="M 235.398438 754.761719 C 236.789062 754.582031 237.425781 754.617188 237.542969 755.164062 C 237.8125 756.425781 236.738281 758.371094 235.867188 761.820312 C 234.652344 766.601562 233.988281 770.75 234.976562 775.40625 C 236.386719 782.035156 239.867188 786.273438 245.414062 788.128906 C 249.605469 789.527344 253.765625 788.644531 258.804688 787.570312 L 273.980469 784.34375 L 273.476562 781.988281 C 271.351562 782.210938 270.941406 781.097656 270.347656 778.304688 L 264.636719 751.464844 C 264.289062 749.820312 264.878906 748.835938 266.335938 748.410156 L 265.835938 746.054688 L 253.949219 748.585938 L 254.449219 750.941406 C 256.347656 750.707031 256.828125 751.351562 257.210938 753.15625 L 263.175781 781.203125 L 259.289062 782.03125 C 254.90625 782.960938 251.71875 783.582031 248.789062 782.203125 C 245.421875 780.628906 243.0625 777.351562 242.039062 772.53125 C 241.222656 768.695312 241.339844 764.664062 242.363281 760.324219 C 243.195312 756.710938 244.199219 754.152344 246.722656 752.296875 L 246.28125 750.214844 L 234.941406 752.628906 L 235.398438 754.761719 "
       style=" stroke:none;fill-rule:nonzero;fill:rgb(6.266785%,5.734253%,5.047607%);fill-opacity:1;" />
    <path
       id="path3856"
       d="M 280.609375 783.582031 L 290.269531 780.003906 L 289.433594 777.742188 C 287.789062 778.292969 287.074219 777.660156 286.277344 775.507812 L 277.230469 751.089844 L 302.722656 762.667969 L 305.09375 769.078125 C 305.757812 770.863281 305.570312 771.648438 303.875 772.394531 L 304.710938 774.652344 L 313.953125 771.226562 L 313.117188 768.96875 C 311.117188 769.53125 310.804688 768.691406 310.144531 766.90625 L 300.203125 740.074219 C 299.519531 738.234375 299.773438 737.304688 301.328125 736.667969 L 300.511719 734.464844 L 291.324219 737.867188 L 292.140625 740.074219 C 293.878906 739.609375 294.492188 739.976562 295.078125 741.554688 L 299.335938 753.054688 L 277.617188 742.945312 L 267.273438 746.777344 L 268.089844 748.984375 C 269.460938 748.65625 270.410156 748.960938 270.683594 749.695312 L 281.070312 777.738281 C 281.808594 779.734375 281.714844 780.605469 279.929688 781.265625 L 279.773438 781.324219 L 280.609375 783.582031 "
       style=" stroke:none;fill-rule:nonzero;fill:rgb(6.266785%,5.734253%,5.047607%);fill-opacity:1;" />
    <path
       id="path3858"
       d="M 319.421875 768.484375 L 330.191406 762.734375 L 329.058594 760.609375 C 327.496094 761.253906 326.660156 760.871094 325.84375 759.34375 L 312.152344 733.703125 C 311.335938 732.171875 311.488281 731.265625 312.890625 730.328125 L 311.753906 728.203125 L 300.984375 733.953125 L 302.121094 736.078125 C 303.878906 735.328125 304.566406 735.785156 305.4375 737.414062 L 319.023438 762.855469 C 319.890625 764.488281 319.890625 765.3125 318.289062 766.359375 L 319.421875 768.484375 "
       style=" stroke:none;fill-rule:nonzero;fill:rgb(6.266785%,5.734253%,5.047607%);fill-opacity:1;" />
    <path
       id="path3860"
       d="M 353.996094 746.363281 L 343.25 712.429688 C 342.621094 710.453125 342.4375 709.546875 343.609375 708.117188 L 342.273438 706.320312 L 334.179688 712.328125 L 335.511719 714.125 C 336.445312 713.503906 337.308594 713.628906 337.773438 714.257812 C 338.007812 714.574219 338.320312 715.179688 338.648438 716.191406 L 346.539062 741.015625 L 324.9375 725.808594 C 324.175781 725.253906 323.6875 724.78125 323.488281 724.511719 C 323.121094 724.015625 323.425781 723.300781 324.382812 722.523438 L 322.980469 720.632812 L 313.042969 728.007812 L 314.476562 729.941406 C 315.621094 729.230469 316.84375 729.371094 318.324219 730.433594 L 347.789062 750.96875 L 353.996094 746.363281 "
       style=" stroke:none;fill-rule:nonzero;fill:rgb(6.266785%,5.734253%,5.047607%);fill-opacity:1;" />
    <path
       id="path3862"
       d="M 385.378906 709.4375 L 376.234375 720.332031 L 364.652344 710.609375 L 372.144531 701.6875 C 373.726562 699.800781 374.605469 699.367188 376.492188 700.511719 L 377.933594 698.796875 L 370.511719 692.570312 L 369.070312 694.285156 C 370.597656 696.296875 369.75 697.484375 367.734375 699.886719 L 361.179688 707.691406 L 353.589844 701.320312 L 362.554688 690.640625 C 364.425781 688.410156 365.332031 687.414062 368.058594 688.609375 L 369.609375 686.765625 L 363.6875 681.796875 L 343.5625 705.773438 L 345.40625 707.320312 C 346.761719 705.972656 347.570312 706.136719 348.984375 707.328125 L 371.074219 725.867188 C 372.488281 727.058594 372.796875 727.824219 371.699219 729.390625 L 373.542969 730.941406 L 394.605469 705.847656 L 388.34375 700.589844 L 386.652344 702.605469 C 388.5 705.109375 387.683594 706.691406 385.378906 709.4375 "
       style=" stroke:none;fill-rule:nonzero;fill:rgb(6.266785%,5.734253%,5.047607%);fill-opacity:1;" />
    <path
       id="path3864"
       d="M 388.9375 675.539062 L 377.792969 669.3125 L 380.984375 663.59375 C 383.554688 658.996094 387.089844 657.828125 390.414062 659.6875 C 395.597656 662.582031 394.074219 666.347656 390.933594 671.96875 L 388.9375 675.539062 M 403.027344 694.761719 L 408.980469 684.101562 L 406.878906 682.929688 C 405.617188 684.726562 404.5625 684.199219 402.265625 682.917969 L 392.976562 677.730469 L 395.707031 672.839844 L 415.394531 672.613281 L 419.957031 664.449219 L 418.050781 663.382812 C 417.089844 664.640625 415.84375 665.035156 413.882812 665.097656 L 398.546875 665.574219 C 400.257812 660.4375 398.226562 655.582031 393.628906 653.015625 C 388.25 650.011719 382.148438 651.863281 377.78125 659.6875 L 368.851562 675.675781 L 370.953125 676.847656 C 372.027344 675.269531 372.855469 675.28125 374.46875 676.183594 L 399.648438 690.242188 C 401.261719 691.144531 401.707031 691.84375 400.925781 693.585938 L 403.027344 694.761719 "
       style=" stroke:none;fill-rule:nonzero;fill:rgb(6.266785%,5.734253%,5.047607%);fill-opacity:1;" />
    <path
       id="path3866"
       d="M 414.445312 654.449219 C 422.65625 652.949219 427.15625 649.164062 429.808594 641.429688 C 433.285156 631.316406 429.808594 623.84375 422.871094 621.460938 C 416.671875 619.335938 411.972656 622.339844 407.105469 629.785156 C 403.242188 635.683594 401.558594 639.902344 397.746094 638.589844 C 395.042969 637.664062 394.027344 634.414062 395.554688 629.964844 C 397.230469 625.09375 400.652344 622.535156 403.195312 623.410156 C 403.726562 623.59375 404.148438 623.914062 404.691406 624.398438 L 406.667969 623.300781 L 403.195312 615.476562 C 397.050781 617.511719 393.0625 621.707031 390.71875 628.539062 C 387.824219 636.960938 390.632812 643.964844 396.402344 645.945312 C 402.28125 647.964844 406.207031 644.988281 410.53125 638.601562 C 413.0625 634.851562 414.523438 631.976562 415.933594 630.625 C 417.753906 628.941406 419.601562 628.394531 421.617188 629.085938 C 425.109375 630.285156 426.4375 634.351562 424.566406 639.808594 C 422.78125 644.996094 419.273438 647.109375 416.359375 646.109375 C 415.355469 645.761719 414.707031 645.066406 414.058594 644.015625 L 411.835938 644.96875 L 414.445312 654.449219 "
       style=" stroke:none;fill-rule:nonzero;fill:rgb(6.266785%,5.734253%,5.047607%);fill-opacity:1;" />
    <path
       id="path3868"
       d="M 436.09375 617.101562 L 437.652344 604.992188 L 435.265625 604.683594 C 434.882812 606.328125 434.089844 606.792969 432.367188 606.570312 L 403.542969 602.859375 C 401.820312 602.636719 401.171875 601.988281 401.21875 600.300781 L 398.832031 599.992188 L 397.269531 612.101562 L 399.660156 612.40625 C 400.070312 610.539062 400.839844 610.246094 402.675781 610.480469 L 431.277344 614.164062 C 433.109375 614.402344 433.78125 614.882812 433.707031 616.792969 L 436.09375 617.101562 "
       style=" stroke:none;fill-rule:nonzero;fill:rgb(6.266785%,5.734253%,5.047607%);fill-opacity:1;" />
    <g
       id="g3872"
       clip-rule="nonzero"
       clip-path="url(#clip3)">
      <path
         id="path3870"
         d="M 438.722656 587.550781 L 439.179688 575.410156 L 436.773438 575.316406 C 436.601562 576.878906 435.738281 577.519531 433.949219 577.453125 L 404.960938 576.355469 L 405.199219 570.085938 C 405.285156 567.734375 406.339844 566.542969 408.472656 566.457031 L 408.5625 564.160156 L 400.445312 563.855469 L 399.222656 596.144531 L 407.335938 596.449219 L 407.425781 594.15625 C 405.25 593.90625 404.34375 592.636719 404.433594 590.289062 L 404.671875 584.019531 L 433.65625 585.117188 C 435.449219 585.1875 436.222656 585.496094 436.316406 587.460938 L 438.722656 587.550781 "
         style=" stroke:none;fill-rule:nonzero;fill:rgb(6.266785%,5.734253%,5.047607%);fill-opacity:1;" />
    </g>
    <path
       id="path3874"
       d="M 429.261719 530.339844 L 431.578125 544.371094 L 416.660156 546.832031 L 414.761719 535.339844 C 414.363281 532.910156 414.601562 531.960938 416.703125 531.273438 L 416.339844 529.066406 L 406.78125 530.640625 L 407.144531 532.851562 C 409.667969 533.003906 410.015625 534.421875 410.523438 537.515625 L 412.183594 547.570312 L 402.402344 549.183594 L 400.132812 535.425781 C 399.660156 532.554688 399.496094 531.21875 402.179688 529.925781 L 401.785156 527.546875 L 394.160156 528.804688 L 399.253906 559.691406 L 401.632812 559.300781 C 401.488281 557.394531 402.140625 556.890625 403.964844 556.589844 L 432.421875 551.894531 C 434.246094 551.59375 435.027344 551.863281 435.5 553.714844 L 437.878906 553.324219 L 432.546875 521 L 424.480469 522.328125 L 424.910156 524.925781 C 428.011719 525.152344 428.679688 526.804688 429.261719 530.339844 "
       style=" stroke:none;fill-rule:nonzero;fill:rgb(6.266785%,5.734253%,5.047607%);fill-opacity:1;" />
    <path
       id="path3876"
       d="M 424.84375 501.058594 L 420.125 489.859375 L 417.90625 490.796875 C 418.414062 492.285156 417.898438 493.230469 416.246094 493.925781 L 389.511719 505.179688 L 387.078125 499.402344 C 386.164062 497.234375 386.617188 495.707031 388.511719 494.726562 L 387.621094 492.609375 L 380.136719 495.761719 L 392.675781 525.539062 L 400.160156 522.390625 L 399.269531 520.273438 C 397.191406 520.964844 395.835938 520.199219 394.921875 518.03125 L 392.488281 512.253906 L 419.222656 500.996094 C 420.875 500.300781 421.707031 500.253906 422.621094 501.992188 L 424.84375 501.058594 "
       style=" stroke:none;fill-rule:nonzero;fill:rgb(6.266785%,5.734253%,5.047607%);fill-opacity:1;" />
  </g>
</svg>
